<?xml version="1.0" encoding="UTF-8" standalone="no"?>
<svg
   xmlns:dc="http://purl.org/dc/elements/1.1/"
   xmlns:cc="http://creativecommons.org/ns#"
   xmlns:rdf="http://www.w3.org/1999/02/22-rdf-syntax-ns#"
   xmlns:svg="http://www.w3.org/2000/svg"
   xmlns="http://www.w3.org/2000/svg"
   xmlns:sodipodi="http://sodipodi.sourceforge.net/DTD/sodipodi-0.dtd"
   xmlns:inkscape="http://www.inkscape.org/namespaces/inkscape"
   inkscape:export-ydpi="300"
   inkscape:export-xdpi="300"
   inkscape:export-filename="D:\Documents\stock\emotes\charbon++.png"
   sodipodi:docname="charbon.svg"
   inkscape:version="1.0 (4035a4fb49, 2020-05-01)"
   id="svg8"
   version="1.1"
   viewBox="0 0 200 200"
   height="200mm"
   width="200mm">
  <defs
     id="defs2" />
  <sodipodi:namedview
     inkscape:window-maximized="1"
     inkscape:window-y="-8"
     inkscape:window-x="-8"
     inkscape:window-height="1017"
     inkscape:window-width="1920"
     showgrid="false"
     inkscape:document-rotation="0"
     inkscape:current-layer="layer1"
     inkscape:document-units="mm"
     inkscape:cy="645.49686"
     inkscape:cx="558.75188"
     inkscape:zoom="0.5"
     inkscape:pageshadow="2"
     inkscape:pageopacity="0.0"
     borderopacity="1.0"
     bordercolor="#666666"
     pagecolor="#ffffff"
     id="base" />
  <metadata
     id="metadata5">
    <rdf:RDF>
      <cc:Work
         rdf:about="">
        <dc:format>image/svg+xml</dc:format>
        <dc:type
           rdf:resource="http://purl.org/dc/dcmitype/StillImage" />
        <dc:title />
      </cc:Work>
    </rdf:RDF>
  </metadata>
  <g
     id="layer1"
     inkscape:groupmode="layer"
     inkscape:label="Calque 1">
    <path
       d="m 105.21606,186.66729 c -4.94016,1.34672 -9.674872,-2.60708 -12.422611,-6.33573 -2.837122,-4.85221 -4.528497,-10.4737 -2.329048,-15.91864 1.016563,-5.78192 10.905979,-10.4375 -0.222724,-10.09471 -6.254855,-2.49836 -7.605155,6.74867 -13.246529,6.3918 -5.244387,-0.0467 -11.436434,2.31862 -15.477678,-2.27308 -2.764113,-3.0767 -4.817586,-6.88969 -9.526567,-5.2485 -3.252844,0.24035 -7.965372,-0.94102 -6.282725,3.94541 -0.143231,8.84532 -8.593263,16.18587 -17.380599,15.48683 -3.906251,0.19056 -8.021105,1.15563 -11.263857,-1.68101 -5.275615,-3.31761 -7.9538022,-10.55514 -7.7047308,-16.53771 1.1495148,-3.96068 1.7770238,-8.25913 5.3906478,-10.83042 8.52786,-1.6639 2.623123,-9.93314 2.181928,-15.82662 C 12.010398,107.02837 7.0344783,86.319104 1.8155918,65.678196 9.2278168,64.506718 16.684903,63.594235 24.188366,63.309048 c 3.780138,-2.561746 3.982003,-4.969384 1.955788,-9.013539 1.274012,-4.14345 6.798059,-6.589529 10.540312,-8.770422 3.019636,1.325334 6.000703,1.532921 8.936767,-0.881168 5.936302,-0.89594 -1.230563,-10.294327 6.68397,-10.01821 3.110259,-1.186056 6.94963,4.894676 8.86317,0.203165 1.50158,-4.021471 -0.439427,-11.009921 5.023172,-12.166927 4.087212,-0.334677 9.253563,-5.998374 12.723924,-1.751481 3.483998,4.779681 6.066175,-1.691078 6.282432,-5.196894 3.161271,-2.711568 8.299039,-3.91532 12.323172,-5.58712 3.406017,-2.4207282 5.085167,1.237842 7.176497,3.445343 2.64233,2.121321 3.90502,4.739752 3.06443,8.116042 -1.8476,3.818331 5.7891,10.10893 7.14852,5.16194 0.60435,-3.908483 6.62618,-4.687061 9.42232,-3.694811 2.06872,1.656459 3.02843,7.739977 6.14343,5.219851 2.68576,-2.384161 5.92208,-0.01836 8.92859,0.369039 0.41955,3.981944 3.89495,3.250671 6.94127,3.181224 0.89483,2.172899 4.25533,5.602142 3.00621,7.834618 -3.11556,2.310412 1.08086,6.047902 -1.31291,8.051657 4.1951,2.076283 9.88436,0.608691 13.47008,2.659339 3.52098,2.291179 -1.26691,8.200512 4.58049,5.313045 7.9519,-3.178222 5.48346,7.882912 11.63209,7.037248 2.05909,2.0263 1.17,7.454663 5.30684,7.243481 7.14617,2.585885 20.40056,3.229835 10.49887,12.498459 -4.57826,11.093519 -9.84814,22.243823 -14.7983,32.959923 -2.1962,7.60566 -8.64555,16.12222 -8.10225,23.80347 4.89316,2.67273 7.58009,7.39244 7.15875,13.15234 0.0312,5.15443 -1.53836,11.30789 -7.08097,13.03845 -4.10121,2.13232 -9.09867,1.16552 -13.57608,1.99627 -5.73655,-0.15796 -8.26138,-7.35152 -11.89711,-8.39815 -6.18137,2.42093 -18.03515,0.91439 -20.5114,6.36018 1.74388,6.52745 -0.74058,13.37495 -5.25667,18.03345 -3.62236,2.9774 -10.36036,3.63445 -9.40014,1.71694 -1.36525,1.02303 -3.22325,1.18307 -4.84757,1.44149 z"
       style="fill:#d4e9e6;stroke-width:0.736536"
       id="path4660" />
    <path
       d="m 105.21606,186.66729 c -5.520621,1.3926 -10.868955,-3.36002 -13.240402,-7.98035 -2.297926,-4.26972 -3.4716,-9.09285 -1.564008,-13.75071 1.139837,-3.94438 2.82329,-7.78799 6.92444,-9.25007 -2.299598,-0.59078 -9.235832,-2.84768 -12.329479,-1.23224 -2.773228,3.88287 -6.827934,7.50089 -11.909972,6.57378 -3.808914,-0.0937 -8.067253,1.1705 -10.971025,-2.0584 -2.959136,-3.48106 -4.788167,-7.47107 -9.970175,-5.71038 -2.658387,0.75746 -8.454033,-1.47248 -7.224241,2.9883 0.543628,7.0679 -5.051213,13.46058 -11.366471,15.80874 -4.40087,0.21752 -9.232624,1.5149 -13.48928,0.47953 -5.817521,-1.99355 -9.243188,-7.84078 -10.3736926,-13.5126 C 9.581077,154.89792 9.3418968,150.69372 11.944904,147.18755 16.0397,142.00357 22.522009,140.05183 17.962476,132.2224 12.790938,109.98802 7.6246519,87.713319 1.7684284,65.664194 9.2079698,64.683495 16.80333,64.051182 24.16289,63.159562 c 5.937547,-2.344055 1.237579,-6.507637 2.382302,-10.475128 3.579518,-2.581936 7.506773,-8.042177 12.054899,-6.728422 3.166998,2.394291 6.202513,-1.547026 9.300737,-2.466931 0.06445,-3.863433 0.258483,-10.17566 6.137828,-8.920173 4.617489,3.914319 8.73353,1.099412 7.949617,-5.087722 -0.574372,-6.211806 5.264951,-7.664383 10.21863,-9.070025 3.097941,-2.050996 5.686822,-0.971754 8.04614,1.519026 4.250184,3.296833 3.578485,-5.916368 6.032894,-7.220845 4.689684,-2.190294 9.474551,-4.208394 14.483223,-5.5518093 2.22817,2.9095833 5.52584,5.4337933 7.13475,8.5664993 0.43739,3.098918 -1.81706,7.404571 1.77541,9.089084 4.99488,6.37044 4.40386,-3.996303 9.66223,-3.594757 4.69245,-2.725752 6.31645,2.033929 8.47376,4.997281 1.86875,2.522188 5.2574,-3.065147 8.18801,-0.328861 3.97091,-0.882489 3.41379,4.282609 6.4135,4.038301 3.68869,-1.032298 5.32813,1.239038 6.37,4.473749 3.73626,2.991704 -3.80282,4.969548 0.34648,7.335335 0.63046,2.84895 -3.1341,4.958972 3.11685,5.208479 3.97142,1.014161 10.24252,-0.946975 10.94343,4.593867 -3.15903,7.273893 11.23723,-2.687921 10.58271,6.403525 -0.57237,4.50487 5.58332,0.668203 5.24813,5.543433 -0.15634,4.93676 2.3656,6.689037 6.93699,6.705892 4.15865,0.381182 13.53878,3.160083 3.74307,3.017507 -13.4107,0.943407 -26.82194,1.939763 -40.19018,3.376769 15.19651,-0.596502 30.55075,-0.622268 45.51081,-3.49048 6.63357,-0.737629 -4.17048,7.235499 -2.99389,10.910369 -8.13025,17.064805 -15.63483,34.419295 -22.82569,51.899475 1.85644,3.99923 6.73171,5.32662 7.03679,10.14837 2.20742,7.2112 -1.5979,16.60052 -9.08963,18.61712 -7.02357,0.82117 -15.80442,1.55869 -19.64988,-5.88139 -3.05636,-4.87874 -13.24954,2.1254 -18.72298,1.81406 -6.55151,3.37213 -7.24789,-10.54419 -14.25122,-8.07078 4.59482,1.41295 7.3887,9.39711 10.16811,8.56544 0.49516,7.79587 -0.84322,16.96914 -7.97813,21.47293 -4.5958,2.92246 -8.53508,0.96703 -10.09843,1.6648 l -1.40426,0.42997 z m 9.60187,-25.47987 c 4.1044,-2.55584 -9.41097,-8.75752 -4.88088,-5.37954 0.58067,0.86587 3.45782,4.38915 4.88088,5.37954 z"
       style="fill:#cadbe2;stroke-width:0.736536"
       id="path4658" />
    <path
       d="m 105.16411,186.67349 c -3.74226,1.30575 -6.733423,-1.47883 -9.974664,-2.90155 -4.87204,-6.43799 -7.857288,-15.21596 -3.259723,-22.69869 -0.41136,-3.19574 6.456228,-4.89414 4.724676,-5.78987 -4.058841,-0.0323 -9.808021,-3.70916 -12.540302,0.19488 -2.545708,3.96839 -6.877179,6.29301 -11.547142,5.56051 -3.653254,-0.0202 -7.677652,1.02307 -10.441367,-2.07178 -2.966243,-3.49893 -4.765087,-7.54138 -9.965435,-5.67185 -5.243493,1.41983 -8.112201,-0.44464 -8.976824,-6.21426 -1.246786,-4.38462 -6.217018,-6.60374 -10.327667,-7.21333 3.197031,1.81295 8.518199,7.38411 10.059023,12.52218 0.138197,4.49985 1.006607,9.51034 -1.922211,13.41129 -0.63321,5.23371 -16.513143,9.85015 -6.957215,3.86586 10.223153,-8.59167 4.935956,-29.24281 -9.116374,-29.69472 -1.021162,0.29265 11.795052,6.12799 10.877237,12.1601 0.93691,5.32803 1.518936,11.21712 -2.206676,15.66206 -5.555383,8.90679 -20.189178,5.22695 -22.480675,-4.53748 -2.1649658,-3.51447 -1.4090526,-7.89044 -1.1912814,-11.7576 0.5982464,-5.94352 8.2023074,-8.55007 9.5310134,-11.76726 C 14.456172,114.88292 7.7686089,90.395945 2.093823,65.696841 9.3910534,65.146272 16.572565,63.601178 23.912526,63.70472 c 3.671753,-2.760714 4.469529,-5.223769 2.233215,-9.40613 1.274012,-4.14345 6.798059,-6.589528 10.540311,-8.770423 2.990612,1.289846 5.944987,1.569257 8.852887,-0.838636 5.941236,-0.773548 -0.883742,-10.013381 6.254477,-9.947936 3.317887,-1.781149 7.316418,4.939744 9.376553,0.09036 1.501578,-4.021471 -0.439426,-11.009919 5.023172,-12.166926 4.087212,-0.334676 9.253565,-5.998375 12.723926,-1.75148 3.483998,4.779679 6.066173,-1.691081 6.282431,-5.196895 3.161269,-2.711567 8.299033,-3.915316 12.323162,-5.58712 3.40601,-2.4207232 5.08517,1.23783 7.1765,3.445332 2.64232,2.121325 3.90503,4.739757 3.06445,8.116053 -1.84761,3.81833 5.78908,10.108929 7.14852,5.16194 0.60433,-3.908483 6.62617,-4.687059 9.4223,-3.694812 2.06872,1.65645 3.02843,7.73997 6.14343,5.219844 2.52709,-2.202141 6.11899,-0.442796 8.60793,0.712287 1.13931,3.551223 4.47652,2.877324 7.48344,2.838328 0.84597,2.928937 4.8752,6.037785 1.85392,8.748121 -1.46137,2.569941 3.79875,4.617826 -0.85497,6.952082 4.30215,1.103143 8.54182,3.369428 12.99522,1.656859 2.71989,1.83185 2.4342,5.744712 2.53326,7.284832 5.79782,-2.94376 10.92151,0.885921 11.68914,5.923125 4.7157,-1.380686 4.47425,4.739549 5.33226,7.897989 2.17738,2.101609 7.10457,1.45769 10.23626,2.678996 10.82799,2.595826 -7.0458,2.227376 -10.59428,2.850529 -10.09135,0.770575 -20.1826,1.568755 -30.24472,2.664413 15.22039,-0.595921 30.59587,-0.625651 45.58085,-3.501172 4.79209,-1.761498 0.27612,4.136049 -1.10349,5.847276 -8.35332,18.976508 -17.04326,37.841325 -25.02196,56.980745 0.69627,2.75834 5.5122,6.86043 6.67605,11.01347 -0.23596,3.9103 0.97456,8.21172 -1.67034,11.53678 -1.96125,4.58958 -6.17404,7.16835 -11.01429,6.41235 -4.25616,0.0618 -9.05995,1.35993 -12.2059,-2.4736 -4.67311,-9.76577 -15.79863,-2.29985 -23.80543,-1.31267 -4.06024,-2.18318 -10.88767,-11.56117 -15.99002,-9.84703 5.67405,2.12528 10.76144,7.13353 12.00842,13.05743 -0.39189,4.57436 1.34432,9.72429 -2.02843,13.49244 0.92671,4.78669 -14.75834,8.34133 -8.88023,5.23006 3.88872,-1.3058 5.36962,-5.49376 7.04227,-8.82323 0.83803,-5.14113 1.15027,-10.51097 -2.2019,-14.97761 -1.86737,-4.23802 -5.80117,-6.46764 -10.25064,-7.23009 -6.862867,-0.688 8.19114,3.62962 7.62187,8.01944 1.9384,4.59024 3.82054,10.69969 1.52899,15.46286 -1.35308,3.05663 -2.3776,6.38484 -5.69603,7.81715 -1.33093,1.46358 -3.17858,1.08464 -4.941,1.38344 z M 164.6269,166.3432 c 3.51002,-2.29311 7.2564,-5.32324 7.33768,-9.86623 1.51224,-5.33373 -1.06546,-10.94508 -3.93468,-15.41218 -2.17739,4.31223 2.66284,8.45542 1.77633,13.21421 0.21559,4.61204 -2.87193,8.97258 -6.13025,12.0642 h 0.52978 z m -87.793658,-7.02525 c 4.234969,-1.08466 6.710006,-9.4629 2.341989,-5.15324 1.408937,1.4224 -9.663623,9.83923 -2.341989,5.15324 z"
       style="fill:#b7e4d0;stroke-width:0.736536"
       id="path4656" />
    <path
       d="m 105.16411,186.67349 c -3.74226,1.30575 -6.733423,-1.47883 -9.974664,-2.90155 -4.87204,-6.43799 -7.857288,-15.21596 -3.259723,-22.69869 -0.41136,-3.19574 6.456228,-4.89414 4.724676,-5.78987 -4.058841,-0.0323 -9.808021,-3.70916 -12.540302,0.19488 -2.545708,3.96839 -6.877179,6.29301 -11.547142,5.56051 -3.653254,-0.0202 -7.677652,1.02307 -10.441367,-2.07178 -2.966243,-3.49893 -4.765087,-7.54138 -9.965435,-5.67185 -5.243493,1.41983 -8.112201,-0.44464 -8.976824,-6.21426 -1.246786,-4.38462 -6.217018,-6.60374 -10.327667,-7.21333 3.197031,1.81295 8.518199,7.38411 10.059023,12.52218 0.138197,4.49985 1.006607,9.51034 -1.922211,13.41129 -0.63321,5.23371 -16.513143,9.85015 -6.957215,3.86586 10.223153,-8.59167 4.935956,-29.24281 -9.116374,-29.69472 -1.021162,0.29265 11.795052,6.12799 10.877237,12.1601 0.93691,5.32803 1.518936,11.21712 -2.206676,15.66206 -5.555383,8.90679 -20.189178,5.22695 -22.480675,-4.53748 C 8.9438052,159.74237 9.6997184,155.3664 9.9174896,151.49924 10.511512,145.54796 18.14156,142.93792 19.461847,139.73315 14.24098,114.74283 8.0511895,89.935374 1.6698921,65.217174 c 7.7282183,0.154934 15.4602349,0.673335 23.1869449,0.44891 -6.375949,-1.381544 7.222866,-5.120132 1.559375,-9.132763 -1.815907,-5.574799 5.969984,-7.813347 9.317101,-10.545441 2.953966,-1.164504 5.968862,2.509481 8.860509,-0.823286 5.971923,-0.619632 1.852096,-6.888723 4.926978,-9.725708 3.535941,-2.77059 7.00349,1.11996 10.142913,1.143187 3.941617,-3.068261 0.61948,-10.61307 4.855685,-13.136133 4.086853,-0.820384 9.230986,-5.477885 13.133972,-3.500162 2.964683,4.01911 7.108331,2.938803 7.212041,-2.679174 0.303099,-4.153917 6.336627,-3.765809 9.048705,-5.861702 3.853624,-1.9044415 7.876014,-3.3556031 10.026134,1.313398 1.87495,2.339987 5.02696,4.219827 3.8703,7.652167 -1.12187,3.918868 0.90965,6.519942 4.31005,8.327582 3.0086,-0.950256 5.08576,-7.958673 11.27708,-5.980347 2.51178,0.820468 3.33302,5.825095 5.66844,6.386336 2.731,-2.279659 5.74117,-1.962238 8.85469,-0.683392 2.24042,1.98934 3.79337,4.602018 7.49102,3.503974 2.29521,0.458385 4.37129,5.359732 3.87607,7.428364 -4.30809,2.751358 3.10625,4.913818 -0.80331,7.259211 -1.7801,2.246885 5.0637,2.049668 6.87691,3.278183 2.84307,0.136711 6.01587,-1.70864 7.19057,2.11865 0.12318,5.000513 0.65333,4.874868 6.41677,3.734526 5.5108,0.741051 4.13895,7.851531 9.31691,7.73619 -0.73538,4.463762 8.71534,11.003857 1.57989,10.458936 -14.52763,0.936665 -29.10793,2.242262 -43.64825,2.499944 -5.63713,-0.474766 -11.26782,-1.348598 -16.92924,-1.275666 7.86139,1.552912 15.90424,2.046467 23.85734,3.032985 1.6231,7.754546 1.06675,15.808287 1.56151,23.698447 -2.52672,-6.030009 -0.38072,-16.390381 -2.07104,-20.240479 -7.30646,24.932929 -14.01292,50.044079 -21.20099,75.012239 -2.41828,-2.10421 -15.78563,-5.46882 -7.21208,-1.8557 5.12083,3.1403 9.7486,8.88161 8.75801,15.19395 0.0716,3.4646 0.51962,7.03103 -2.04005,9.78397 0.92675,4.78673 -14.75833,8.34131 -8.88022,5.23006 3.88872,-1.3058 5.36963,-5.49375 7.04226,-8.82322 0.83808,-5.14114 1.15029,-10.51098 -2.20189,-14.97762 -1.86735,-4.23803 -5.80118,-6.46763 -10.25064,-7.23009 -6.862836,-0.68797 8.19114,3.62964 7.62188,8.01946 1.9384,4.59023 3.82054,10.69968 1.52897,15.46285 -1.35308,3.05663 -2.37758,6.38484 -5.69602,7.81715 -1.33219,1.46559 -3.17303,1.07999 -4.94108,1.38653 z M 76.833242,159.31795 c 4.234969,-1.08466 6.710006,-9.4629 2.341989,-5.15324 1.408937,1.4224 -9.663623,9.83923 -2.341989,5.15324 z m 83.729108,7.68569 c -3.32757,0.12844 -6.82763,0.59578 -9.31604,-2.13579 -4.55235,-9.7936 -14.81838,-3.44491 -22.71838,-2.23216 -4.23409,2.63397 -8.62279,-5.3649 -4.89944,-8.30812 2.48436,-4.83127 7.77939,-7.84198 8.51305,-13.51509 3.86361,-12.36522 8.06864,-24.64001 11.30151,-37.18927 10.51215,-3.02971 21.61785,-3.658828 32.38634,-5.551503 0.16429,6.887613 -4.75166,15.782993 -6.74148,23.370293 -0.67923,4.74118 -5.59326,9.62141 -1.83103,13.99373 0.44056,5.80363 -0.27874,4.07532 2.86425,4.41348 2.46947,3.49544 6.18913,7.59439 5.54372,12.19603 -0.20055,3.6738 0.065,7.50418 -2.76775,10.29371 -2.11405,4.66056 -7.8879,4.83114 -12.33475,4.66469 z m 4.06455,-0.66026 c 3.51002,-2.29311 7.25639,-5.32325 7.33768,-9.86623 1.50341,-5.30199 -1.03507,-10.89276 -3.88816,-15.33694 -2.79259,3.82035 2.91129,8.0573 1.68604,12.61098 0.53232,4.81662 -2.73549,9.37814 -6.08646,12.59219 h 0.52978 z m 13.69936,-69.108364 c -3.53398,1.538068 6.21146,-7.271257 7.3096,-9.214491 3.07323,-3.152319 10.67461,-12.228084 11.76336,-12.461681 -5.06498,8.133262 -11.87974,15.390257 -19.07296,21.676172 z"
       style="fill:#b3d1c8;stroke-width:0.736536"
       id="path4654" />
    <path
       d="m 104.95395,186.57875 c -3.65282,1.45944 -6.573773,-1.48523 -9.764504,-2.80655 -3.272081,-5.14044 -7.147863,-11.36978 -5.001556,-17.58593 -1.739666,-6.5009 13.89431,-11.65515 2.068465,-11.73432 -4.980233,-1.75741 -8.347441,-0.0484 -11.176108,4.19878 -4.324201,3.34675 -8.153452,2.89783 -1.929587,-0.99752 4.970535,-3.05394 1.425274,-7.38124 -0.896399,-2.23533 -1.937987,4.03372 -6.030004,6.60364 -10.450064,5.76416 -4.842825,0.34325 -8.083275,-4.50024 -10.356724,-8.22044 -3.837809,0.24242 -7.675619,0.48484 -11.513428,0.72726 -1.789357,-6.20193 -5.640295,-13.6298 -12.816348,-14.12924 -5.296055,-0.52681 7.574334,3.80138 7.442136,7.85529 4.060428,7.11977 3.494659,16.93682 -3.083279,22.44151 -3.078574,3.27501 -11.15416,3.6524 -3.258471,-0.17682 4.165094,-3.61192 5.83938,-8.97711 5.174361,-14.29343 0.237875,-4.70911 -3.052574,-9.15715 -6.143069,-12.37656 -2.368477,-3.09496 -15.178532,-4.53216 -6.619454,-1.25485 3.163907,1.05331 5.491062,3.06004 6.937961,6.0698 3.372913,3.95821 2.950691,9.83624 2.194027,14.64436 -1.446723,7.34725 -10.236031,13.27803 -17.128065,9.2432 -5.118017,-1.31797 -6.809638,-7.23147 -8.8403844,-11.56461 0.049789,-4.47644 -0.6939725,-9.17913 2.1793094,-13.0163 3.707931,-5.42879 10.89773,-5.71717 6.394325,-13.7966 C 13.13747,110.6724 7.6883983,88.056047 1.997044,65.505811 c 15.562087,0.423806 31.058764,2.019607 46.599505,2.788281 -8.719332,-1.52368 -17.593865,-2.368923 -26.433604,-2.858427 1.398518,-2.481485 6.477053,-4.320009 5.052061,-7.294887 -4.216017,-6.089086 4.366756,-9.083482 8.040734,-11.9223 2.981208,-2.077163 6.056394,2.603411 8.986139,-0.87733 3.698436,-0.794202 4.568394,-3.440712 4.205387,-6.894658 -1.11163,-3.618357 4.031346,-4.522539 6.412367,-3.509698 5.441521,4.793576 7.67505,-2.18605 7.544994,-7.33087 -0.07901,-6.343971 7.985915,-5.439136 11.931162,-7.90448 2.948419,-1.810069 4.852491,2.073849 7.254005,3.245936 4.379531,-1.72342 1.65857,-8.770247 6.833232,-9.21959 4.158721,-1.18172 9.494267,-5.5844275 13.318804,-3.592872 1.93488,2.802754 4.97951,5.279602 6.25377,8.2764 -0.11356,2.992402 -1.90597,6.61387 1.65855,8.228163 5.03378,6.870043 4.92599,-4.765389 10.83954,-3.698447 4.36295,-2.0027 5.35506,3.242543 7.5945,5.669133 2.30891,0.887725 5.86373,-2.717573 8.85602,-0.307934 2.95687,2.564219 5.42625,4.527299 9.59466,3.620937 0.72831,2.715155 4.68109,5.727907 2.17347,8.304979 -2.51825,2.60508 3.41707,4.564394 -0.90706,7.222228 3.00161,3.699409 11.3213,-0.0093 14.12134,3.74081 2.70575,2.75839 -1.31697,7.369994 4.69791,4.618119 8.04239,-3.241132 4.82177,8.683245 11.28271,6.679318 2.55593,3.37081 -0.32296,9.211599 4.67067,10.240111 -6.54471,2.262655 -16.8925,1.425544 -24.84449,2.38719 -10.25967,0.453712 -20.53929,1.987729 -30.7592,0.275609 -12.756,-1.003887 -25.536,-3.137657 -38.311029,-2.856909 6.009121,0.396073 15.110489,1.438685 22.059909,2.213555 10.88454,1.266905 21.78882,2.418538 32.61442,4.135162 -7.99221,25.77703 -14.81435,51.91692 -22.27188,77.85736 -1.49394,-2.60965 -11.9087,-4.70959 -9.15326,-3.07407 5.33495,2.30663 9.92011,6.76102 10.70102,12.66732 1.581,3.62434 0.33955,7.74602 -0.36733,11.38131 -2.19284,3.02996 -3.60167,7.06114 -7.73209,7.79052 -3.0819,1.08194 -6.39929,0.44217 -9.56003,1.07297 z m 6.06622,-1.08567 c 5.17789,-1.90056 8.6886,-8.15072 8.67133,-13.47527 -0.20986,-4.10135 -0.28797,-8.29697 -3.20263,-11.53526 -2.60558,-3.6583 -6.09694,-7.08895 -10.87921,-6.44127 -5.629631,-0.84178 6.40919,2.84565 7.20369,5.99894 2.99766,2.41629 2.61985,6.87256 4.09477,10.20911 -0.32324,5.80512 -2.65929,11.36228 -7.07399,15.2435 0.39535,8e-5 0.79069,1.7e-4 1.18604,2.5e-4 z m 47.21888,-18.4161 c -5.82237,1.19659 -8.89334,-4.90797 -12.58882,-8.09025 -6.63847,0.0264 -15.89426,5.13153 -21.10984,3.56609 -5.39761,-5.64391 1.36785,-10.22736 4.40842,-14.99191 4.0487,-4.16082 4.15409,-10.41751 6.2825,-15.59896 3.03186,-9.54664 5.76412,-19.1918 8.96945,-28.68075 10.63528,-1.80079 21.29185,-3.93318 32.06393,-4.59442 -3.12207,11.29044 -7.29057,22.2654 -10.98064,33.38086 3.20552,6.78599 0.22878,13.79416 3.99753,20.25951 0.78753,4.77765 -0.5276,9.35058 -4.44524,12.47709 -1.91478,2.05 -3.86429,2.62467 -6.59729,2.27274 z m 7.66002,-0.27576 c -5.57964,1.17442 8.32477,-5.35492 6.02251,-10.08781 2.17859,-5.73788 -1.93453,-11.23512 -3.49375,-16.52647 6.33195,1.60889 7.52921,10.42388 7.23351,16.29161 -2.16812,4.31437 -4.20668,9.7839 -9.76227,10.32267 z m 19.06331,-76.689137 c -1.80852,1.794616 -5.59919,5.739368 -6.20295,6.227131 5.66216,-6.69482 11.55432,-13.190688 17.6587,-19.484772 -3.35753,4.80176 -7.35086,9.088927 -11.45575,13.257641 z"
       style="fill:#aebbc1;stroke-width:0.736536"
       id="path4652" />
    <path
       d="m 111.95104,186.22407 c -2.25311,-0.28981 6.23181,-4.88 6.94588,-8.45971 0.81258,-5.20822 1.83017,-10.96259 -1.36064,-15.71161 -0.16674,-6.64271 -14.98217,-9.49684 -13.54129,-7.19028 2.64699,0.6575 -6.741699,1.75035 -8.867712,0.13496 -3.438523,0.57993 -8.519098,-3.28487 -10.889605,0.2176 -1.449044,4.05 -14.123367,8.79048 -5.477071,2.93115 8.077377,-5.06931 -3.027744,-6.87184 -6.315865,-3.8837 -1.741607,4.94322 -1.884855,0.80672 -6.886465,2.64842 -1.543975,-2.08756 -9.508933,-6.48363 -5.6697,-1.3478 2.025852,3.95201 -2.37539,-4.57784 -5.088559,-2.50885 -3.003324,-0.11251 -6.006647,-0.22502 -9.009971,-0.33753 -1.777448,-7.32674 -7.743123,-13.57543 -15.594123,-13.69312 5.708776,2.58057 11.359225,6.94831 12.191116,13.50929 2.64381,8.13206 -2.545541,19.50284 -11.822877,20.07836 3.148723,-1.96124 6.140049,-3.8648 7.181434,-7.6525 2.92237,-4.11725 1.420721,-9.46993 0.931546,-14.08393 C 36.962584,141.94842 25.640314,139.0083 20.055877,140.29034 14.382527,115.60551 8.1263993,91.054281 2.4998617,66.359345 c 8.5836723,-1.382491 17.5324393,0.362479 26.2298003,0.575138 7.364133,0.366765 14.703102,1.616202 22.089272,1.260542 -9.510714,-1.254834 -19.072425,-2.057646 -28.620268,-2.968353 1.3917,-2.295387 6.440023,-3.692076 5.095822,-6.659892 -3.836758,-6.770064 4.842882,-10.043329 9.284455,-13.294195 2.947135,1.743992 5.804821,1.832639 8.538448,-0.374144 4.245312,-0.626306 3.003471,-4.623494 3.123717,-7.783921 2.168442,-5.223166 8.169936,0.260612 11.873875,-0.821088 3.157195,-2.260773 0.873875,-8.935002 3.414153,-12.464929 4.044563,-1.863692 8.629109,-3.178618 12.880568,-4.832046 2.302303,1.541614 5.449359,5.557352 7.779524,2.441252 0.872817,-2.981371 0.09701,-7.299841 4.175906,-7.680966 4.180137,-1.171905 9.509147,-5.4816582 13.345546,-3.545003 2.05544,2.496696 4.11086,4.993396 6.16629,7.490097 -2.94642,4.163657 1.00424,0.868921 -0.63541,5.558789 0.17848,4.102872 8.16457,8.683259 8.72106,1.584776 2.25421,-1.786829 9.38893,-4.082112 9.11484,0.964612 2.24332,2.543613 4.14802,4.634269 7.89333,1.697741 1.85437,1.574942 6.05428,0.0011 8.26813,4.821322 7.72158,-3.013781 7.55926,7.033235 7.15562,10.713764 2.68617,2.780279 -4.0235,6.200512 3.33136,5.961141 2.95106,2.177027 6.79484,0.193447 9.06999,1.129774 3.77865,1.300711 0.22054,6.708986 3.19837,6.1812 3.39041,0.144306 8.59871,-2.5405 9.51461,2.56538 -0.98017,5.354061 4.91969,1.7369 5.07854,6.117935 -0.67086,4.219335 3.12814,7.464504 3.17376,8.449933 -15.24356,1.218081 -30.55573,2.259124 -45.82196,2.817395 -15.5746,-1.298225 -31.14425,-3.604557 -46.75168,-3.810404 2.612253,0.487408 14.2335,1.290917 19.60119,2.078867 11.52989,1.335229 23.08205,2.53929 34.54972,4.351722 -7.9922,25.777026 -14.81436,51.916916 -22.27187,77.857356 -2.49482,-2.32605 -5.32714,-3.76147 -8.80484,-3.49393 -5.8376,-0.74181 9.81884,3.9097 8.84805,8.99742 2.74743,5.57762 3.16017,12.18026 -0.41923,17.49358 -1.95583,3.08805 -4.99859,5.9163 -8.73951,6.48386 z m -14.828729,-5.06886 c -0.967063,0.93369 -2.649268,-6.20231 -2.842166,-8.88059 -0.501597,-5.77764 0.536077,-9.86416 4.70033,-12.92838 6.111115,-1.3578 7.762075,-0.55208 10.589325,5.92735 1.7412,0.10476 -0.14929,3.3292 1.80852,2.77749 -0.7238,5.53164 -2.75091,13.51131 -9.31137,13.82727 -1.61433,-0.17849 -3.671113,-2.44815 -4.944639,-0.72314 z m 5.011639,-5.23711 c 5.40308,-0.58831 4.66918,-10.40343 -0.28379,-10.31147 1.37497,4.54418 -4.529658,-1.62232 -3.525133,5.23755 -0.717857,2.61894 1.808233,4.04333 3.808923,5.07392 z m -11.206362,-6.62883 c -0.312915,4.12442 -0.592551,7.25855 -0.566168,1.28659 -0.567974,-3.9499 0.235318,-7.7691 2.837723,-10.90448 6.773491,-7.15403 1.181849,-1.11931 -1.176703,3.40341 -0.578441,2.02691 -0.900151,4.1189 -1.094852,6.21448 z m -73.754609,1.47314 c -3.683748,-2.29072 -7.9150356,-10.45642 -2.614023,-3.5659 3.862876,-1.93142 -0.155547,-4.87153 -0.482913,-7.64326 0.02632,-5.09753 -0.294237,-10.40881 4.705052,-13.21161 2.507918,-1.32501 6.419044,-1.01576 8.319324,1.51733 3.94293,3.27552 4.135063,10.0717 2.05391,14.51981 -1.669488,8.29842 -11.153463,3.38337 -13.087822,4.15172 -2.874285,1.65649 0.824196,2.25635 1.106472,4.23191 z M 21.81242,161.924 c 1.082994,-1.35079 2.030294,-0.36472 2.735315,-1.46945 0.202703,-0.76227 1.181192,-3.45729 -0.519617,-5.11484 4.811201,1.49116 -5.827382,-5.4725 1.011822,-2.1655 -2.897792,-3.40714 -6.438349,-0.68691 -7.043143,2.7875 0.651522,4.81916 2.364498,1.81045 2.641505,5.74797 l 1.174069,0.2164 z m 144.27395,4.85964 c -5.9897,1.28428 7.6296,-5.01288 5.96569,-9.55183 2.42351,-5.94437 -2.16226,-11.65575 -3.43329,-17.22372 7.21321,3.81676 8.93597,14.76539 4.72048,21.39858 -2.33982,1.94125 -3.78572,5.59185 -7.25288,5.37697 z m -39.7729,-3.7418 c -2.10184,0.36011 -4.24942,-5.12952 -3.60841,-6.89937 3.29276,-5.61497 9.02049,-9.8941 10.12871,-16.5878 3.74606,-12.15728 7.57266,-24.29047 11.23069,-36.4743 10.74853,-1.32048 21.38306,-3.879919 32.20024,-4.403384 -3.12806,11.304134 -7.31084,22.289834 -11.01168,33.417254 4.2059,3.96864 -0.28357,9.41984 1.98233,13.45136 2.62489,7.20943 -2.73378,-5.60762 -0.87821,2.70494 -2.41611,1.57076 -1.28659,9.7415 -6.15061,13.54488 -2.58692,2.1009 -6.69516,0.71059 -8.9976,-1.45902 -0.28801,-3.05343 -6.01339,-0.8816 -9.78426,-0.60838 -5.08969,0.8479 -10.11383,2.04016 -15.1112,3.31382 z m 58.64891,-72.93002 c -1.80852,1.794616 -5.59919,5.739369 -6.20295,6.227132 5.66216,-6.694822 11.55432,-13.19068 17.6587,-19.484763 -3.35753,4.801752 -7.35086,9.088923 -11.45575,13.257631 z"
       style="fill:#a5cab8;stroke-width:0.736536"
       id="path4650" />
    <path
       d="m 111.95104,186.22407 c -2.25311,-0.28981 6.23181,-4.88 6.94588,-8.45971 0.81258,-5.20822 1.83017,-10.96259 -1.36064,-15.71161 -0.16674,-6.64271 -14.98217,-9.49684 -13.54129,-7.19028 2.64699,0.6575 -6.741699,1.75035 -8.867712,0.13496 -3.438523,0.57993 -8.519098,-3.28487 -10.889605,0.2176 -1.449044,4.05 -14.123367,8.79048 -5.477071,2.93115 8.077377,-5.06931 -3.027744,-6.87184 -6.315865,-3.8837 -1.741607,4.94322 -1.884855,0.80672 -6.886465,2.64842 -1.543975,-2.08756 -9.508933,-6.48363 -5.6697,-1.3478 2.025852,3.95201 -2.37539,-4.57784 -5.088559,-2.50885 -3.003324,-0.11251 -6.006647,-0.22502 -9.009971,-0.33753 -1.777448,-7.32674 -7.743123,-13.57543 -15.594123,-13.69312 5.708776,2.58057 11.359225,6.94831 12.191116,13.50929 2.64381,8.13206 -2.545541,19.50284 -11.822877,20.07836 3.148723,-1.96124 6.140049,-3.8648 7.181434,-7.6525 2.92237,-4.11725 1.420721,-9.46993 0.931546,-14.08393 C 36.928897,141.97696 25.740167,139.00175 20.05039,140.28287 14.978637,117.73529 9.2991136,95.327368 4.0489966,72.821225 c 8.4264474,3.065557 -5.9345444,-9.261162 0.8380355,-4.485096 2.4260714,4.884248 6.8548689,6.4521 12.0583249,7.121452 12.685788,3.03532 24.781924,8.133776 37.132778,12.107556 23.333636,3.107633 46.628555,6.623117 69.623545,11.708366 5.37199,-7.523041 11.79948,-14.540696 19.18413,-20.158908 -5.96167,7.525678 -13.58943,13.827054 -19.12545,21.556855 -3.10197,14.56089 -6.35975,29.08818 -9.4006,43.66209 1.36897,4.56794 4.33697,11.35068 -3.23055,8.81469 -1.39731,0.10352 11.13911,4.997 10.57005,10.52481 3.79181,7.67076 0.61178,17.70364 -6.97895,21.68853 l -1.05048,0.44755 -1.71846,0.41343 z m -14.828729,-5.06886 c -0.967063,0.93369 -2.649268,-6.20231 -2.842166,-8.88059 -0.501597,-5.77764 0.536077,-9.86416 4.70033,-12.92838 6.111115,-1.3578 7.762075,-0.55208 10.589325,5.92735 1.7412,0.10476 -0.14929,3.3292 1.80852,2.77749 -0.7238,5.53164 -2.75091,13.51131 -9.31137,13.82727 -1.61433,-0.17849 -3.671113,-2.44815 -4.944639,-0.72314 z m 5.011639,-5.23711 c 5.40308,-0.58831 4.66918,-10.40343 -0.28379,-10.31147 1.37497,4.54418 -4.529658,-1.62232 -3.525133,5.23755 -0.717857,2.61894 1.808233,4.04333 3.808923,5.07392 z m -11.206362,-6.62883 c -0.312915,4.12442 -0.592551,7.25855 -0.566168,1.28659 -0.567974,-3.9499 0.235318,-7.7691 2.837723,-10.90448 6.773491,-7.15403 1.181849,-1.11931 -1.176703,3.40341 -0.578441,2.02691 -0.900151,4.1189 -1.094852,6.21448 z m -73.754609,1.47314 c -3.683748,-2.29072 -7.9150356,-10.45642 -2.614023,-3.5659 3.862876,-1.93142 -0.155547,-4.87153 -0.482913,-7.64326 0.02632,-5.09753 -0.294237,-10.40881 4.705052,-13.21161 2.507918,-1.32501 6.419044,-1.01576 8.319324,1.51733 3.94293,3.27552 4.135063,10.0717 2.05391,14.51981 -1.669488,8.29842 -11.153463,3.38337 -13.087822,4.15172 -2.874285,1.65649 0.824196,2.25635 1.106472,4.23191 z M 21.81242,161.924 c 1.082994,-1.35079 2.030294,-0.36472 2.735315,-1.46945 0.202703,-0.76227 1.181192,-3.45729 -0.519617,-5.11484 4.811201,1.49116 -5.827382,-5.4725 1.011822,-2.1655 -2.897792,-3.40714 -6.438349,-0.68691 -7.043143,2.7875 0.651522,4.81916 2.364498,1.81045 2.641505,5.74797 l 1.174069,0.2164 z m 144.27395,4.85964 c -5.9897,1.28428 7.6296,-5.01288 5.96569,-9.55183 2.42351,-5.94437 -2.16226,-11.65575 -3.43329,-17.22372 7.21321,3.81676 8.93597,14.76539 4.72048,21.39858 -2.33982,1.94125 -3.78572,5.59185 -7.25288,5.37697 z m -39.86982,-3.71005 c -4.10136,0.15367 -0.24421,-3.84733 0.98078,-5.47484 5.74313,-18.08494 11.32266,-36.2227 17.0098,-54.3237 10.68411,-1.7381 21.38042,-3.684576 32.1525,-4.693394 -6.17086,18.564004 -12.77316,37.054074 -18.37522,55.749114 4.10864,1.57086 6.46629,-2.43453 7.67744,-6.24666 2.3962,-5.7539 3.16169,0.8925 0.0725,2.42352 -1.30485,5.47689 -4.92268,15.10768 -12.06663,11.49554 -4.13255,-1.91198 -2.42806,-4.50537 -7.72481,-2.93879 -6.66653,0.82279 -13.23101,2.33493 -19.72638,4.00921 z M 138.46629,76.026534 C 116.8368,74.90886 95.299423,72.010384 73.708701,70.163475 56.885707,68.238494 39.908101,67.347164 23.198556,64.626546 c 5.563405,-3.121288 3.81595,-6.808109 3.660989,-11.843793 3.42673,-2.603413 7.719532,-9.062508 12.490203,-6.461867 3.001067,1.514514 5.72608,-2.073695 8.602765,-2.857547 1.358089,-2.308758 -1.594247,-7.35421 2.16428,-8.105275 3.417249,-3.180264 9.961959,4.947946 11.367755,-0.941193 0.96223,-3.961085 -0.471197,-10.739717 4.610687,-11.686589 3.552737,-0.9692 7.311074,-3.278724 10.735398,-3.41079 2.03331,1.714931 5.997005,5.414111 7.458901,1.599816 0.606093,-3.197698 0.471973,-6.995728 4.563458,-7.366653 4.079402,-0.947044 9.755408,-5.9885766 13.194108,-2.930163 1.94319,2.360362 3.88638,4.720723 5.82957,7.081085 -2.94641,4.163616 1.00421,0.868949 -0.63542,5.55878 0.1785,4.102869 8.16459,8.683268 8.72107,1.584777 2.25421,-1.786808 9.38892,-4.082115 9.11484,0.964617 2.24332,2.543619 4.14802,4.634251 7.89332,1.69774 1.8544,1.57495 6.05428,0.001 8.26814,4.821326 7.72158,-3.013812 7.55925,7.033217 7.15564,10.713753 2.68615,2.780269 -4.02351,6.200516 3.33135,5.961138 2.95106,2.177043 6.79481,0.193442 9.06997,1.129775 3.77868,1.300698 0.22054,6.708978 3.19839,6.181196 3.39041,0.144321 8.5987,-2.540513 9.51461,2.565381 -0.98016,5.354059 4.91969,1.736914 5.07852,6.117948 -1.27561,4.39511 7.67532,9.594177 0.31572,8.687649 -13.45737,1.107896 -26.97028,1.374107 -40.43653,2.338877 z"
       style="fill:#aab7b9;stroke-width:0.736536"
       id="path4648" />
    <path
       d="m 111.80346,186.22686 c -1.25279,-0.8665 10.11921,-7.30861 7.78929,-13.16416 0.23477,-5.39028 -0.14837,-11.65387 -4.98787,-14.95182 -3.12622,-4.08268 -8.11284,-5.29949 -12.75932,-3.67769 -5.672601,1.54811 -11.364234,-1.15136 -17.146395,-0.60606 -0.0073,3.89578 -12.316696,10.20252 -7.48763,5.68429 4.567866,-3.16809 6.77032,-7.71292 -0.294758,-6.76113 -3.759187,-1.75454 -5.183517,2.89772 -7.959682,4.01405 -4.52701,0.52406 -6.587986,-5.38476 -11.228072,-3.80165 -3.937969,0.0675 -7.875938,0.13506 -11.813907,0.20259 -1.532827,-6.96259 -7.089919,-14.33091 -14.782714,-14.00329 -3.854182,-0.58891 3.78755,2.15353 5.011932,3.0363 2.416651,1.60758 3.969566,4.67279 5.493095,7.09096 1.227145,4.89645 2.389397,9.98736 -0.266379,14.71879 -1.168345,4.7196 -5.575065,8.12705 -10.412752,8.22389 2.771903,-1.95817 6.157104,-3.38655 6.984075,-7.02455 2.700107,-3.70696 1.314133,-8.35093 1.643895,-12.60145 -1.941132,-4.87017 -5.178142,-10.00801 -9.976088,-12.15703 -4.780186,-1.53901 -11.542432,2.88199 -10.65456,-5.33068 C 14.342365,114.1707 8.9192177,93.413382 4.0484205,72.526472 c 8.4605415,3.699806 -6.0028317,-9.200184 0.838057,-4.20682 2.1643295,3.173878 4.4019426,6.146459 8.5793325,6.192571 13.471708,3.158638 26.451955,8.085836 39.350635,12.936583 23.741713,3.16153 47.413615,6.932608 70.852235,11.882732 5.36317,-7.532832 11.78017,-14.584693 19.21663,-20.145149 -5.95926,7.238133 -13.31137,13.41961 -18.62365,21.106461 -3.94776,14.28526 -6.73233,28.85734 -9.98743,43.30997 0.22976,3.93637 5.78972,11.59756 -1.39399,9.40677 -7.07394,-0.28511 4.61941,2.64441 6.24561,5.44091 1.84297,4.27553 4.68518,8.33439 3.7695,13.20804 0.69238,6.10588 -4.02931,12.14055 -9.57107,14.26473 l -1.52039,0.30213 z m -8.32258,-4.83521 c -4.109331,1.28236 -7.458261,-3.69866 -8.838425,-6.95799 -0.510893,-6.0232 0.708467,-15.45093 8.742605,-14.6248 9.27196,1.85327 8.98513,19.32664 0.0958,21.58279 z m -1.61545,-5.48478 c 10.61818,-2.10808 -1.49854,-17.56907 -3.540266,-6.50103 -0.0768,2.51221 0.651229,5.91697 3.540266,6.50103 z M 21.790158,167.81624 C 10.937,165.28481 12.11448,145.00854 24.09404,145.72018 c 2.589279,1.6786 5.463301,4.27124 5.65477,7.72658 1.784355,4.73455 -0.552536,10.87842 -4.753785,13.51938 l -1.710977,0.60047 -1.493767,0.24945 z m 0.25515,-5.89224 c 5.870423,-1.08659 5.126795,-10.13479 -0.593567,-11.24629 -3.517755,2.71906 -4.919417,7.30077 -1.350597,10.91115 0.273607,0.74568 1.367122,0.13616 1.944164,0.33514 z m 144.041042,4.77413 c -4.35835,0.99366 3.64772,-1.86017 3.59018,-4.10205 1.50317,-3.3842 4.13389,-6.55606 2.89829,-10.45603 0.84972,-3.69167 -8.07624,-16.55453 -0.51609,-9.38993 5.83355,7.63707 4.16231,20.96455 -5.97238,23.94801 z m -39.862,-3.67716 c -4.73848,-0.18107 2.20806,-3.6855 1.73798,-7.1328 5.51213,-17.4276 10.56273,-35.01472 16.61548,-52.26349 10.23983,-2.24929 20.67579,-3.53122 31.0466,-5.042245 -3.90656,15.407415 -9.83863,30.287025 -14.55298,45.481075 -1.21607,3.49854 -2.43214,6.99708 -3.64821,10.49562 4.77998,1.02939 8.42884,-5.69885 5.78025,2.68722 -2.86174,9.153 -9.75491,2.59602 -14.88328,1.56626 -7.47506,0.58456 -14.84351,2.37492 -22.09584,4.20836 z M 138.098,76.033506 C 109.23971,74.006531 80.464255,70.501665 51.635223,67.936307 42.695048,66.5031 30.085523,67.120644 23.685626,64.029125 c 7.260211,-2.583391 0.436896,-8.350074 4.373888,-12.464341 3.739409,-2.897992 7.750714,-8.140328 12.654039,-4.673837 2.28017,-1.244034 6.822026,-2.053069 7.527172,-4.634043 -0.878731,-4.421014 0.551272,-9.097479 6.312073,-7.398557 7.923223,6.17562 7.471145,-4.958047 8.459363,-10.082889 3.086753,-3.011149 8.982496,-3.601825 13.2235,-5.545878 2.634469,1.057828 4.773058,5.078829 8.016129,2.677203 0.915915,-2.746065 -0.446054,-7.229682 3.420384,-7.725167 4.190871,-1.540532 9.131961,-4.4302106 13.303826,-4.2719705 1.90858,3.1912395 8.04271,6.1201805 5.31378,10.0885105 0.24695,0.572078 0.68809,2.520117 1.66989,5.475848 3.87653,5.236022 6.85277,2.548834 9.12858,-1.402059 6.09174,-2.738175 7.17313,1.015816 10.51216,4.544315 2.05,2.124079 6.79048,-3.180219 7.5066,2.572189 -0.11671,-6.056166 4.05186,0.889985 5.72916,1.115404 3.8066,-2.389865 10.14273,4.634634 6.64522,6.458754 -3.74261,1.379531 3.81773,0.146359 -0.74827,3.137518 5.90442,3.332351 -3.02035,3.009057 -0.13286,3.957041 1.7683,2.156073 3.29279,3.569981 7.9928,4.249471 4.22817,4.979229 2.59109,-2.163212 6.33753,0.396654 3.5637,1.04612 0.54358,6.334777 2.36513,6.447877 3.28564,-0.915847 9.90349,-2.843624 9.96551,2.326589 -0.43942,5.168736 3.78451,2.004492 4.84141,4.632323 -0.93075,4.498854 8.15274,10.839396 0.77721,9.749107 -13.57398,1.096871 -27.2078,1.351685 -40.78185,2.374319 z m 32.40754,-7.649497 c 2.07525,-4.140027 -2.64283,-9.544606 -7.06512,-7.913684 0.94848,-0.509011 7.33534,2.609762 6.33987,6.92297 0.007,1.166906 -0.18424,3.012411 0.72525,0.990714 z"
       style="fill:#98aca9;stroke-width:0.736536"
       id="path4646" />
    <path
       d="m 113.05584,185.83183 c -4.09371,1.18861 7.55692,-5.46252 6.1752,-9.32368 2.73461,-6.86686 -0.46861,-14.87419 -5.51098,-19.79966 -7.94067,-4.74963 4.58117,-1.24506 5.40113,2.72425 3.51182,4.75268 4.30633,11.40037 3.04794,16.97408 -1.76078,4.17325 -4.59224,8.04026 -9.11329,9.42501 z m -10.83798,-4.78033 c -5.382576,-0.26985 -8.414726,-6.7522 -7.495276,-11.63965 -0.757221,-10.49691 14.282266,-12.61127 15.088806,-1.59701 0.98538,5.15148 -1.20752,13.14826 -7.59353,13.23666 z m 1.43028,-5.23727 c 6.77046,-2.83431 -0.13054,-16.49341 -4.910004,-8.2433 -2.256995,2.90708 0.865035,10.80447 4.910004,8.2433 z m -71.75872,-3.58156 c 2.74974,-2.93252 7.997486,-7.00332 7.829577,-12.01102 -0.185598,-4.08779 0.802947,-8.4637 -1.941244,-11.92362 -2.212813,-4.94377 -7.763101,-9.28831 -13.197214,-9.1239 -5.093514,2.18964 -5.463108,-2.67355 -5.942821,-6.71227 -0.142934,-3.54782 3.245566,-3.44948 -1.197095,-4.20809 -1.379131,-5.63317 -1.325943,-11.52151 -3.689369,-16.83023 0.175103,-5.02714 -0.917279,-5.7722 -0.717686,-7.5447 C 12.868635,103.47228 9.1349668,99.300248 11.893895,95.280319 11.359751,96.103917 8.6791918,98.008332 9.3642527,92.544191 10.94312,89.122046 6.8509239,92.266188 7.823828,86.378901 7.3631977,81.578671 5.2429477,77.723607 4.2521898,72.796842 7.2593096,72.416826 5.0302735,76.060411 6.8993617,72.443543 4.0151489,69.394517 2.5372498,64.825261 6.7916122,70.794845 c 1.34538,3.463134 4.7645538,3.789398 7.9614288,4.451917 14.340607,3.28189 27.738239,9.843696 42.142648,12.739633 22.40668,3.292552 44.866061,6.485504 66.954261,11.563642 -3.11617,16.038033 -7.47933,31.847903 -10.04783,48.005143 1.37158,3.25324 3.2495,6.91535 -1.28949,4.10299 -5.83308,3.00031 -14.244952,3.68908 -21.192237,2.51222 -3.610626,-0.68508 -7.267275,-1.73445 -8.569777,2.66799 -2.21931,3.46068 -10.017937,5.08878 -2.750775,0.41864 6.029749,-4.54495 -5.925633,-6.75741 -8.050598,-3.2075 -2.898123,4.93291 -8.461617,0.10635 -10.773381,-1.5361 -4.989066,0.25348 -9.97813,0.50697 -14.967195,0.76047 -1.385585,-4.33057 -3.475619,-9.09366 -7.126337,-11.79306 -1.90446,-1.77518 -13.038577,-3.60306 -7.207281,-1.20794 6.937636,2.86744 11.739738,10.47051 10.603618,17.95321 0.634191,6.12054 -4.774623,12.68943 -10.589247,14.00657 z m -9.73111,-5.153 c -5.401037,-0.025 -8.478305,-6.73669 -7.641615,-11.45182 -0.07114,-4.51608 4.795025,-11.62062 9.553434,-9.19754 3.911785,1.79432 5.988453,5.61289 5.678554,9.77882 0.840007,4.44 -2.468399,11.45652 -7.590373,10.87054 z m -0.248711,-4.43042 c 8.53892,-1.21817 3.118608,-17.44332 -3.165438,-9.28124 -1.330381,3.62992 -1.43066,8.12664 3.165438,9.28124 z m 144.176751,4.08481 c -3.692,1.15863 6.21158,-4.94403 6.15251,-8.55793 1.40854,-5.66268 0.1598,-12.65683 -4.20272,-16.90994 3.51616,-3.79321 6.97543,7.06021 6.81914,10.11983 0.57557,4.33435 -0.069,8.57126 -3.30272,11.77734 -1.34357,1.79889 -3.38434,2.86731 -5.46621,3.5707 z m -34.13788,-5.26009 c -2.56841,0.75291 -10.15952,3.07568 -6.53758,-1.19284 3.33993,-1.62248 2.5507,-7.54724 4.4804,-10.64796 4.87656,-15.3406 9.30363,-30.83652 14.68659,-46.00883 10.20895,-2.12761 20.5714,-3.801907 30.96462,-4.670011 -5.08548,18.829991 -12.37833,37.036611 -18.18671,55.666311 0.35033,0.58936 2.94596,0.16981 -1.15347,3.28463 3.17523,-0.71697 10.38071,-8.61314 6.23106,0.22111 -0.56128,2.91125 -4.64243,5.42402 -7.29453,3.83999 -3.0077,-3.52601 -5.88937,-4.48749 -10.28687,-3.05075 -4.33378,0.67215 -8.63591,1.55524 -12.90351,2.55835 z m -6.87085,-63.628534 c 4.57331,-6.907012 11.21229,-12.162121 17.0014,-18.045168 -5.51348,6.150442 -10.90731,12.466196 -17.0014,18.045168 z m 9.60065,-22.213931 C 98.14826,72.650437 61.691838,68.666716 25.199847,65.241571 c -4.535576,-1.553187 6.769545,-4.438747 1.587789,-8.725399 -1.219447,-5.757713 6.146354,-7.82629 9.695613,-11.112979 2.670453,1.540537 5.34326,2.09801 7.993267,0.113397 4.186144,-0.44049 4.072529,-3.71206 3.764252,-7.111802 -1.086309,-3.150823 3.960034,-4.034085 6.00671,-3.499004 3.892455,2.979665 8.50355,2.083008 7.690666,-3.259979 -1.045758,-8.547661 10.867037,-13.91366 17.527082,-10.041411 3.798465,4.64887 5.795742,-3.037594 5.970555,-6.366442 4.735627,-1.982948 9.416269,-4.263204 14.504672,-5.188044 2.359737,2.553334 4.719467,5.106672 7.079187,7.660014 -0.91913,3.108265 -7.097096,14.212746 -1.39445,8.417205 2.94386,-2.960347 4.84415,5.619657 7.4614,6.956314 3.43306,3.158315 4.34376,-7.792257 9.62384,-5.208465 4.42378,-0.612761 4.19027,8.105941 8.04321,7.011284 3.32976,-3.101653 9.15727,1.229441 6.61649,4.387309 -3.62562,4.112352 -9.56951,9.006663 -1.29006,11.694315 2.47805,3.463321 5.66537,4.03845 9.49428,2.795834 3.24743,-0.245999 9.79042,4.840327 2.11845,4.126142 -6.41134,-0.06392 -23.06475,3.399529 -11.16909,10.198867 3.35748,1.239425 2.89549,8.982052 -0.91556,7.572526 l -0.52951,-0.01694 z M 117.24048,58.392501 c -0.69196,-3.382898 7.22537,-1.593687 4.58816,-4.861658 -0.79174,-3.132823 -5.50297,2.302472 -5.0059,4.194796 0.13561,1.096534 -0.0414,3.677003 0.41774,0.666862 z m 8.24398,-17.544873 c 4.52515,0.01296 2.74784,-3.698321 0.336,-7.060235 -3.62784,0.07746 -6.61073,0.18987 -1.34635,0.749105 1.43511,1.120166 -1.25292,6.868134 -0.0695,7.287525 0.35994,-0.325465 0.71989,-0.65093 1.07983,-0.976395 z M 101.25242,28.254444 c 5.30471,-3.341922 -1.274601,-10.917983 -1.863405,-9.434117 4.522055,2.766026 -1.4067,5.714222 -3.326618,8.148396 0.66149,0.774368 7.715323,-2.700003 4.489213,1.718855 l 0.45066,-0.278528 z m 56.15642,46.758382 c -5.502,1.329029 -3.30333,-2.333227 0.59511,-1.988382 5.58205,0.504403 4.60666,2.125639 -0.59511,1.988382 z m 16.96354,-1.179197 c -6.54994,2.346116 -2.12633,-3.491995 1.58295,-2.270357 4.97421,1.720679 1.05439,1.860794 -1.58295,2.270357 z m -25.55822,-1.216491 c -6.31442,1.613685 -0.45224,-2.262518 -1.14119,-5.375516 2.37997,-5.088642 -8.33379,-4.029736 -5.89229,-5.48458 7.13631,-3.602898 11.27451,1.693189 10.62347,8.839388 1.13202,2.481739 -2.53287,1.452027 -3.58999,2.020708 z m 13.32574,-1.286971 c -4.24512,1.340388 -4.75939,-1.934951 -5.17655,-5.330519 -2.42269,-3.712837 5.6331,-6.474372 3.665,-1.151716 -1.87092,3.990803 9.65602,6.568606 2.89636,6.482876 -0.46147,-4.34e-4 -0.92397,8.32e-4 -1.38481,-6.41e-4 z m 11.12766,-5.896244 c -1.92288,-3.584345 -11.55666,-6.565492 -3.76291,-8.270094 4.08209,-3.054806 4.21092,6.016906 3.76291,8.270094 z M 140.74575,47.760994 c -5.80844,1.987225 -3.09016,-6.58926 1.2578,-6.062321 -3.69031,2.569355 4.50068,6.13651 0.6542,6.062271 -0.63733,1.7e-5 -1.27467,3.3e-5 -1.912,5e-5 z"
       style="fill:#93b19a;stroke-width:0.736536"
       id="path4644" />
    <path
       d="m 113.05584,185.83183 c -4.09371,1.18861 7.55692,-5.46252 6.1752,-9.32368 2.73461,-6.86686 -0.46861,-14.87419 -5.51098,-19.79966 -7.94067,-4.74963 4.58117,-1.24506 5.40113,2.72425 3.51182,4.75268 4.30633,11.40037 3.04794,16.97408 -1.76078,4.17325 -4.59224,8.04026 -9.11329,9.42501 z m -10.83798,-4.78033 c -5.382576,-0.26985 -8.414726,-6.7522 -7.495276,-11.63965 -0.757221,-10.49691 14.282266,-12.61127 15.088806,-1.59701 0.98538,5.15148 -1.20752,13.14826 -7.59353,13.23666 z m 1.43028,-5.23727 c 6.77046,-2.83431 -0.13054,-16.49341 -4.910004,-8.2433 -2.256995,2.90708 0.865035,10.80447 4.910004,8.2433 z m -71.75872,-3.58156 c 2.74974,-2.93252 7.997486,-7.00332 7.829577,-12.01102 -0.185598,-4.08779 0.802947,-8.4637 -1.941244,-11.92362 0.02099,-4.37227 -14.296574,-10.98872 -3.708665,-6.91167 8.363838,4.79567 11.826188,17.23379 5.800524,25.10848 -1.802068,2.79324 -4.663934,5.11606 -7.980192,5.73783 z m -9.73111,-5.153 c -5.401037,-0.025 -8.478305,-6.73669 -7.641615,-11.45182 -0.07114,-4.51608 4.795025,-11.62062 9.553434,-9.19754 3.911785,1.79432 5.988453,5.61289 5.678554,9.77882 0.840007,4.44 -2.468399,11.45652 -7.590373,10.87054 z m -0.248711,-4.43042 c 8.53892,-1.21817 3.118608,-17.44332 -3.165438,-9.28124 -1.330381,3.62992 -1.43066,8.12664 3.165438,9.28124 z m 144.176751,4.08481 c -3.692,1.15863 6.21158,-4.94403 6.15251,-8.55793 1.40854,-5.66268 0.1598,-12.65683 -4.20272,-16.90994 3.51616,-3.79321 6.97543,7.06021 6.81914,10.11983 0.57557,4.33435 -0.069,8.57126 -3.30272,11.77734 -1.34357,1.79889 -3.38434,2.86731 -5.46621,3.5707 z m -34.13788,-5.26009 c -2.56898,0.84331 -10.19493,2.88706 -6.51635,-1.02303 3.01639,-0.34168 2.34264,-5.68926 3.83593,-8.09711 5.04657,-16.3004 10.10765,-32.59632 15.13687,-48.90209 10.17281,-1.59554 20.34079,-3.22242 30.5199,-4.777441 -5.32193,18.937221 -12.61433,37.393651 -18.41338,56.236711 6.29771,-0.91604 -4.71609,6.15993 2.64483,1.48993 6.1724,-7.30137 4.79298,2.3948 0.96535,4.81236 -3.6059,3.57527 -7.39785,-1.16612 -9.92608,-3.0786 -6.12998,0.84071 -12.23223,1.87647 -18.24707,3.33927 z m -55.130428,-1.04921 c 6.240844,-3.82983 5.359228,-8.92923 -2.476402,-8.20535 -2.987375,2.02305 -5.932258,6.55004 -10.2542,2.78251 -1.631777,-4.1692 -6.150948,-1.82776 -9.789104,-2.13289 -2.573398,-0.52835 -6.934266,1.68578 -8.372752,-0.58384 -1.869891,-7.38313 -8.005642,-13.56992 -15.963981,-13.41579 -2.803312,-0.84278 -1.910678,-5.86076 -3.238553,-8.3703 -3.841307,-15.7057 -8.084272,-31.328437 -11.360076,-47.160073 27.82801,2.392966 55.481861,6.799341 83.053559,11.253283 8.351857,1.461818 16.668397,3.115065 24.950747,4.928252 -3.17106,17.379288 -7.13664,34.696368 -11.32195,51.883778 -5.41978,3.84591 -14.632267,3.67403 -21.596578,2.66476 -4.222078,-1.56986 -6.723562,-0.13819 -8.636884,3.79999 -1.323405,1.37131 -3.114069,2.26418 -4.993826,2.55567 z M 135.04653,75.631505 C 98.25309,72.419074 61.475327,68.820627 24.740147,64.98713 c -4.357816,-0.499235 3.749273,-3.253467 3.320649,-5.227126 -3.976346,-5.452217 1.193981,-9.869564 5.8349,-12.510359 2.227334,-3.633423 5.103061,0.336109 7.78982,-0.53232 2.422355,-1.666751 7.696638,-1.45564 6.555184,-5.468846 -0.319766,-3.19255 -0.439839,-6.24072 3.538948,-6.325439 2.805148,-1.575224 8.804315,4.812471 9.619749,-0.144414 0.633845,-6.495233 1.951926,-12.879156 9.642506,-13.685438 5.58828,-5.127536 12.970017,8.40375 13.93917,-3.189296 -0.359077,-4.488514 5.680871,-3.99481 8.408049,-5.972829 4.319054,-2.8833589 7.985618,-1.794169 10.450438,2.338013 3.48436,2.224075 3.19259,5.125328 1.16035,8.3387 -2.94252,5.429421 -1.90274,6.708728 1.97582,2.225518 3.15855,2.867699 6.51579,13.509445 9.84182,6.356185 1.18081,-3.398101 4.71679,-4.122362 7.65101,-2.930183 3.32854,4.104257 4.43716,9.453493 10.80016,5.905304 2.70853,0.849462 4.06497,5.068878 0.7106,6.708007 -3.95753,3.717817 -6.80439,7.741613 0.10069,10.095369 2.47803,3.463315 5.66537,4.038441 9.49427,2.795832 3.24743,-0.245996 9.79042,4.840318 2.11845,4.12614 -6.41134,-0.0639 -23.06475,3.399503 -11.16909,10.19887 3.35761,1.235662 2.89517,8.991355 -0.91522,7.562743 l -0.52945,-0.0189 z M 117.24048,58.392501 c -0.69196,-3.382898 7.22537,-1.593687 4.58816,-4.861658 -0.79174,-3.132823 -5.50297,2.302472 -5.0059,4.194796 0.13561,1.096534 -0.0414,3.677003 0.41774,0.666862 z m 8.24398,-17.544873 c 4.52515,0.01296 2.74784,-3.698321 0.336,-7.060235 -3.62784,0.07746 -6.61073,0.18987 -1.34635,0.749105 1.43511,1.120166 -1.25292,6.868134 -0.0695,7.287525 0.35994,-0.325465 0.71989,-0.65093 1.07983,-0.976395 z M 101.25242,28.254444 c 5.30471,-3.341922 -1.274601,-10.917983 -1.863405,-9.434117 4.522055,2.766026 -1.4067,5.714222 -3.326618,8.148396 0.66149,0.774368 7.715323,-2.700003 4.489213,1.718855 l 0.45066,-0.278528 z m 56.15642,46.758382 c -5.502,1.329029 -3.30333,-2.333227 0.59511,-1.988382 5.58205,0.504403 4.60666,2.125639 -0.59511,1.988382 z m 16.96354,-1.242695 c -10.13534,0.397312 6.2059,-4.99474 2.81297,-0.378193 l -1.28953,0.189914 z m -25.55822,-1.152993 c -6.31442,1.613685 -0.45224,-2.262518 -1.14119,-5.375516 2.37997,-5.088642 -8.33379,-4.029736 -5.89229,-5.48458 7.13631,-3.602898 11.27451,1.693189 10.62347,8.839388 1.13202,2.481739 -2.53287,1.452027 -3.58999,2.020708 z m 13.32574,-1.286971 c -4.24512,1.340388 -4.75939,-1.934951 -5.17655,-5.330519 -2.42269,-3.712837 5.6331,-6.474372 3.665,-1.151716 -1.87092,3.990803 9.65602,6.568606 2.89636,6.482876 -0.46147,-4.34e-4 -0.92397,8.32e-4 -1.38481,-6.41e-4 z m 11.12766,-5.896244 c -1.92288,-3.584345 -11.55666,-6.565492 -3.76291,-8.270094 4.08209,-3.054806 4.21092,6.016906 3.76291,8.270094 z M 140.74575,47.760994 c -5.80844,1.987225 -3.09016,-6.58926 1.2578,-6.062321 -3.69031,2.569355 4.50068,6.13651 0.6542,6.062271 -0.63733,1.7e-5 -1.27467,3.3e-5 -1.912,5e-5 z"
       style="fill:#879294;stroke-width:0.736536"
       id="path4642" />
    <path
       d="m 113.42198,185.49308 c 5.70829,-4.90088 8.92099,-13.5437 5.76402,-20.75316 0.57908,-4.93252 -14.48443,-14.15488 -4.36337,-8.83589 6.56295,3.73111 8.22112,12.09147 7.773,18.96628 -2.03344,3.54959 -2.81062,8.25975 -7.15765,9.69822 l -0.89882,0.48052 -1.11714,0.44403 z m -11.0459,-4.41921 c -8.703954,-1.92674 -9.860256,-14.85749 -3.268301,-19.99955 4.167991,-2.45541 9.796651,1.50463 10.475781,6.13261 -0.005,3.93892 0.67251,8.19379 -2.53951,11.22079 -1.098,1.48782 -2.81129,2.49482 -4.66797,2.64615 z m -0.31482,-4.41921 c 5.21978,-0.65229 4.43709,-5.6127 4.36575,-9.38578 -2.91181,-4.84681 -9.215223,-2.35659 -8.82756,3.57826 0.245302,2.49313 1.831494,5.25711 4.46181,5.80752 z m -68.154052,-5.15577 c 1.745746,-3.32074 5.533661,-5.37564 5.675755,-9.49224 2.025845,-7.47107 -1.243245,-16.10044 -7.429795,-20.75955 3.33838,-0.68195 9.17645,6.86219 10.164955,11.99992 -0.03321,4.42752 0.781991,9.10893 -2.307099,12.79627 -1.477845,2.33692 -3.542163,4.35482 -6.103816,5.4556 z m -11.357615,-4.41922 c -6.403024,-0.61116 -8.805987,-7.8336 -7.354536,-13.28079 0.398344,-6.19916 8.144261,-10.75491 12.205587,-4.49419 2.30701,3.29038 3.011993,7.05886 1.861256,10.87683 -0.284921,2.8739 -3.231949,5.36559 -5.27261,6.89815 -0.479899,0 -0.959798,0 -1.439697,0 z m -0.516561,-4.41921 c 4.836876,-0.36455 4.943232,-5.77943 4.096905,-9.10769 -4.010322,-7.0428 -11.481898,1.12354 -7.889201,6.25485 1.097964,1.32332 1.662677,3.47023 3.792296,2.85284 z m 146.999438,2.38176 c -5.72473,3.88897 3.06891,-3.82487 3.20954,-6.52621 0.89306,-3.37658 0.52081,-7.37662 0.22443,-10.83458 -2.01499,-2.90122 -5.27985,-11.5741 -0.41872,-4.21457 2.55049,3.32923 3.28807,7.20305 2.86756,11.27634 0.40737,3.36623 -2.03705,6.40632 -3.75706,9.00813 -0.70862,0.43018 -1.41697,0.8613 -2.12575,1.29089 z m -43.37773,-2.38176 c -0.72025,-2.00536 3.09956,-4.95862 3.14309,-8.7885 5.20275,-16.80665 10.42158,-33.60832 15.60706,-50.42031 10.17282,-1.59554 20.3408,-3.22241 30.51991,-4.777429 -5.32196,18.937219 -12.61434,37.393649 -18.41339,56.236709 6.60606,0.11666 -6.46674,4.06883 1.51893,2.79022 3.39366,-4.90678 7.59291,-3.07416 3.22086,1.76293 -1.77798,3.00174 -6.60124,3.69238 -8.50638,0.54778 -1.766,-3.63745 -5.42151,-1.47707 -8.46721,-1.18786 -6.26566,1.00569 -12.41982,2.55072 -18.62287,3.83646 z m -47.905343,-2.2096 c -1.984848,-0.17328 8.170881,-6.68807 3.483314,-7.44083 -3.701625,-0.42967 -8.478213,-2.20243 -10.575885,1.95782 -2.420274,2.53622 -6.508998,0.83719 -8.090955,-2.00285 -2.557212,-1.59216 -6.404333,0.0694 -9.490309,-0.18902 -3.048578,-0.16398 -7.568497,2.01009 -7.867204,-2.52359 C 43.13331,142.93035 36.085651,138.7337 28.780862,138.72289 24.225971,120.14138 19.263636,101.63126 15.096958,82.976647 51.327807,87.442714 87.651476,91.822544 123.36762,99.521 c -3.17106,17.37929 -7.13664,34.69637 -11.32195,51.88378 -5.50734,3.92433 -14.885194,3.62429 -21.923177,2.61981 -3.460051,-1.25414 -6.094738,-0.16252 -8.037525,2.89553 -1.323563,1.30744 -2.603892,2.74105 -4.335571,3.53074 z M 135.7841,75.620638 C 99.030362,72.490686 62.339962,68.616766 25.63148,65.008879 c -5.01382,0.101226 1.734147,-3.371754 2.855766,-5.134984 -1.490383,-2.347829 -4.331765,-8.144785 0.831203,-6.729469 -2.032134,-3.358359 5.126894,-5.356713 7.39434,-7.426445 2.887918,1.627505 5.688514,1.557055 8.390937,-0.422449 4.319302,-0.489217 2.989164,-4.570792 3.136999,-7.712555 0.885493,-1.957783 5.475581,-4.229798 7.505948,-1.747456 1.669208,2.034929 6.36191,1.99616 5.972624,-1.3466 -1.45991,-9.448158 7.514662,-14.934784 15.698683,-14.176253 4.170883,5.90712 8.431117,0.655815 8.508411,-5.031915 4.582995,-1.885092 9.814418,-4.940538 14.609529,-4.087317 1.59033,2.471003 5.93134,4.374599 5.68673,7.224047 -1.67045,3.782229 -2.13107,7.859672 -3.74526,2.006953 -4.610742,-4.443159 -6.301238,-3.249954 -1.71783,0.768231 -2.216618,3.332249 -9.413322,9.289534 -1.145235,5.397434 2.370995,-0.06906 -0.857857,8.357979 3.624335,1.877579 3.09438,-4.237956 5.25095,-1.736339 7.21205,1.843835 1.97513,2.56333 3.91593,7.340015 5.88067,2.075777 2.28235,-6.57969 10.37986,-4.686092 11.53478,1.63564 0.68621,5.007188 7.7575,-2.574044 9.11211,1.773705 2.52733,3.124242 -2.369,5.096061 -3.8243,7.602047 -7.26175,4.487374 2.2604,6.778965 5.76152,10.325239 2.19407,3.597804 5.66796,-0.928462 8.29576,0.575005 4.30462,1.966292 5.09491,3.258947 -0.22316,3.380667 -4.75012,1.126267 -11.21504,0.812465 -14.82644,3.178201 0.53746,2.85199 -0.98479,7.365602 3.29854,7.195646 4.14758,0.77273 1.73731,4.030503 1.55463,5.67506 0.36705,1.858353 1.24504,2.304239 -1.23072,1.892136 z M 117.55487,60.282141 c -1.45708,-5.016538 5.35282,-2.741567 4.93415,-6.087287 -1.32436,-4.761632 -9.96152,3.356124 -4.93415,6.087287 z m 6.52561,-17.676839 c 1.99065,-4.864608 4.76837,-0.844933 5.14537,-0.15244 -0.83958,-4.743813 -1.73419,-12.473926 -8.43641,-8.686638 -4.37419,2.028669 7.46149,-0.358769 3.36554,4.375216 0.77775,0.458852 -1.91455,4.89236 -0.0745,4.463862 z m 25.04857,29.461348 c -5.69522,1.046402 0.44645,-2.449224 -1.04322,-5.095459 1.17607,-4.245261 -5.02535,-4.964633 -4.17615,-4.907341 6.09864,-3.888464 7.94281,3.93521 8.18249,8.851402 0.70845,2.109977 -1.91598,0.78108 -2.96312,1.151398 z m 13.16254,-0.739434 c -4.90878,1.573863 -4.91706,-4.654669 -5.04368,-8.047332 4.73728,-4.031508 1.6923,2.132772 3.83445,5.218145 2.24789,1.437169 6.98325,3.571771 1.4569,2.829246 l -0.24778,2.1e-4 z m 10.62454,-8.355873 c 0.0667,4.844408 -5.32894,-4.382946 -5.42409,-4.373553 3.90141,-4.640397 7.05144,1.050446 5.42409,4.373553 z M 142.07896,47.675389 c -8.57818,1.390246 -0.1416,-10.446029 0.18415,-1.261129 0.74313,1.11862 2.28356,1.611305 -0.18415,1.261129 z"
       style="fill:#9b8a71;stroke-width:0.736536"
       id="path4640" />
    <path
       d="m 113.42198,185.49308 c 5.70829,-4.90088 8.92099,-13.5437 5.76402,-20.75316 0.57908,-4.93252 -14.48443,-14.15488 -4.36337,-8.83589 6.56295,3.73111 8.22112,12.09147 7.773,18.96628 -2.03344,3.54959 -2.81062,8.25975 -7.15765,9.69822 l -0.89882,0.48052 -1.11714,0.44403 z m -11.0459,-4.41921 c -8.703954,-1.92674 -9.860256,-14.85749 -3.268301,-19.99955 4.167991,-2.45541 9.796651,1.50463 10.475781,6.13261 -0.005,3.93892 0.67251,8.19379 -2.53951,11.22079 -1.098,1.48782 -2.81129,2.49482 -4.66797,2.64615 z m -0.31482,-4.41921 c 5.21978,-0.65229 4.43709,-5.6127 4.36575,-9.38578 -2.91181,-4.84681 -9.215223,-2.35659 -8.82756,3.57826 0.245302,2.49313 1.831494,5.25711 4.46181,5.80752 z m -68.154052,-5.15577 c 1.745746,-3.32074 5.533661,-5.37564 5.675755,-9.49224 2.025845,-7.47107 -1.243245,-16.10044 -7.429795,-20.75955 3.346991,-0.68205 9.160328,6.86239 10.174202,11.9998 0.110816,4.42672 0.706285,9.10858 -2.316569,12.79639 -1.477797,2.33692 -3.54207,4.35459 -6.103593,5.4556 z m -11.357615,-4.41922 c -6.403024,-0.61116 -8.805987,-7.8336 -7.354536,-13.28079 0.398344,-6.19916 8.144261,-10.75491 12.205587,-4.49419 2.30701,3.29038 3.011993,7.05886 1.861256,10.87683 -0.284921,2.8739 -3.231949,5.36559 -5.27261,6.89815 -0.479899,0 -0.959798,0 -1.439697,0 z m -0.516561,-4.41921 c 4.836876,-0.36455 4.943232,-5.77943 4.096905,-9.10769 -4.010322,-7.0428 -11.481898,1.12354 -7.889201,6.25485 1.097964,1.32332 1.662677,3.47023 3.792296,2.85284 z m 146.999438,2.38176 c -5.72473,3.88897 3.06891,-3.82487 3.20954,-6.52621 0.89306,-3.37658 0.52081,-7.37662 0.22443,-10.83458 -2.01499,-2.90122 -5.27985,-11.5741 -0.41872,-4.21457 2.55049,3.32923 3.28807,7.20305 2.86756,11.27634 0.40737,3.36623 -2.03705,6.40632 -3.75706,9.00813 -0.70862,0.43018 -1.41697,0.8613 -2.12575,1.29089 z m -43.37773,-2.38176 c -2.64505,-3.58674 5.76915,-2.19034 8.01247,-3.42014 7.93839,-3.02765 -11.52084,3.88739 -4.86174,-3.89673 5.22724,-17.18825 10.55642,-34.34594 15.92741,-51.49002 9.69463,-1.68643 19.42407,-3.46718 29.2347,-4.264194 -5.50454,18.432114 -11.64485,36.724744 -18.47828,54.708344 -3.18609,1.97723 -16.07673,2.63813 -14.55806,3.82236 4.36784,0.18457 16.46623,-4.44526 16.68005,-1.56731 -6.115,3.26014 3.70931,-0.75827 5.68862,-1.9926 -0.55436,4.07869 -3.78036,8.50134 -8.28115,7.36538 -2.58204,-1.2765 -3.98414,-5.75463 -7.61194,-3.65942 -7.30394,1.20862 -14.53047,2.81035 -21.75208,4.39433 z m -47.965296,-2.2096 c 5.901663,-4.51924 4.860223,-9.71812 -3.272217,-8.40819 -2.947488,0.10006 -3.733143,5.413 -7.392803,3.98898 -3.441588,0.28463 -4.301326,-5.55305 -8.329808,-3.60777 -4.221159,0.2741 -8.442318,0.54819 -12.663477,0.82228 -1.041992,-3.91186 -2.185468,-9.25337 -6.13597,-11.32422 -2.577112,-1.91989 -5.248793,-3.51408 -8.581716,-2.83092 -3.870054,0.47073 -2.523687,-5.68731 -4.007541,-8.25672 -4.382343,-15.8336 -7.689424,-31.9772 -12.364677,-47.71422 36.007624,4.461225 72.002104,9.297408 107.628885,16.243925 0.89956,5.145395 -3.11623,14.337505 -3.77009,20.827755 -2.78856,10.91715 -3.9476,22.37258 -8.00571,32.89328 -6.58855,-0.60859 -12.973455,2.70108 -19.470755,0.83394 -4.578076,-1.1922 -8.009408,-1.45551 -9.965913,3.76883 -1.110666,1.05032 -2.210073,2.1903 -3.668208,2.76305 z M 135.7841,75.620638 C 99.030362,72.490686 62.339962,68.616766 25.63148,65.008879 c -5.01382,0.101226 1.734147,-3.371754 2.855766,-5.134984 -1.490383,-2.347829 -4.331765,-8.144785 0.831203,-6.729469 -2.032134,-3.358359 5.126894,-5.356713 7.39434,-7.426445 2.887918,1.627505 5.688514,1.557055 8.390937,-0.422449 4.319302,-0.489217 2.989164,-4.570792 3.136999,-7.712555 0.885493,-1.957783 5.475581,-4.229798 7.505948,-1.747456 1.669208,2.034929 6.36191,1.99616 5.972624,-1.3466 -1.45991,-9.448158 7.514662,-14.934784 15.698683,-14.176253 4.170883,5.90712 8.431117,0.655815 8.508411,-5.031915 4.582995,-1.885092 9.814418,-4.940538 14.609529,-4.087317 1.59033,2.471003 5.93134,4.374599 5.68673,7.224047 -1.67045,3.782229 -2.13107,7.859672 -3.74526,2.006953 -4.610742,-4.443159 -6.301238,-3.249954 -1.71783,0.768231 -2.216618,3.332249 -9.413322,9.289534 -1.145235,5.397434 2.370995,-0.06906 -0.857857,8.357979 3.624335,1.877579 3.09438,-4.237956 5.25095,-1.736339 7.21205,1.843835 1.97513,2.56333 3.91593,7.340015 5.88067,2.075777 2.28235,-6.57969 10.37986,-4.686092 11.53478,1.63564 0.68621,5.007188 7.7575,-2.574044 9.11211,1.773705 2.52733,3.124242 -2.369,5.096061 -3.8243,7.602047 -7.26175,4.487374 2.2604,6.778965 5.76152,10.325239 2.19407,3.597804 5.66796,-0.928462 8.29576,0.575005 4.30462,1.966292 5.09491,3.258947 -0.22316,3.380667 -4.75012,1.126267 -11.21504,0.812465 -14.82644,3.178201 0.53746,2.85199 -0.98479,7.365602 3.29854,7.195646 4.14758,0.77273 1.73731,4.030503 1.55463,5.67506 0.36705,1.858353 1.24504,2.304239 -1.23072,1.892136 z M 117.55487,60.282141 c -1.45708,-5.016538 5.35282,-2.741567 4.93415,-6.087287 -1.32436,-4.761632 -9.96152,3.356124 -4.93415,6.087287 z m 6.52561,-17.676839 c 1.99065,-4.864608 4.76837,-0.844933 5.14537,-0.15244 -0.83958,-4.743813 -1.73419,-12.473926 -8.43641,-8.686638 -4.37419,2.028669 7.46149,-0.358769 3.36554,4.375216 0.77775,0.458852 -1.91455,4.89236 -0.0745,4.463862 z m 25.04857,29.461348 c -5.69522,1.046402 0.44645,-2.449224 -1.04322,-5.095459 1.17607,-4.245261 -5.02535,-4.964633 -4.17615,-4.907341 6.09864,-3.888464 7.94281,3.93521 8.18249,8.851402 0.70845,2.109977 -1.91598,0.78108 -2.96312,1.151398 z m 13.16254,-0.739434 c -4.90878,1.573863 -4.91706,-4.654669 -5.04368,-8.047332 4.73728,-4.031508 1.6923,2.132772 3.83445,5.218145 2.24789,1.437169 6.98325,3.571771 1.4569,2.829246 l -0.24778,2.1e-4 z m 10.62454,-8.355873 c 0.0667,4.844408 -5.32894,-4.382946 -5.42409,-4.373553 3.90141,-4.640397 7.05144,1.050446 5.42409,4.373553 z M 142.07896,47.675389 c -8.57818,1.390246 -0.1416,-10.446029 0.18415,-1.261129 0.74313,1.11862 2.28356,1.611305 -0.18415,1.261129 z"
       style="fill:#7a8589;stroke-width:0.736536"
       id="path4638" />
    <path
       d="m 129.10614,159.39478 c -2.11261,-5.0385 4.17808,-15.43154 5.34195,-22.46216 3.39201,-11.03777 6.83394,-22.06009 10.28479,-33.07958 9.69464,-1.68641 19.42407,-3.46715 29.2347,-4.264189 -5.50453,18.431769 -11.64441,36.724239 -18.47828,54.707319 -8.4263,3.06328 -17.66458,3.18337 -26.38316,5.09861 z M 97.588593,154.1126 c -9.920582,0.35129 -19.378639,-2.35748 -29.292233,-2.56004 -7.001102,-0.45532 -13.997843,-0.97453 -20.990375,-1.54617 -1.710011,3.41749 -3.035822,-3.94095 -4.571558,-5.4121 -1.446082,-2.74348 -4.967001,-3.57728 -7.303244,-5.50144 -3.272012,-0.004 -7.370136,1.04332 -6.991834,-3.60368 -4.620716,-17.42001 -8.507448,-35.06322 -13.498114,-52.367269 36.195842,4.814861 72.669143,8.609187 108.293985,16.837791 -4.29179,17.323698 -6.89145,35.117338 -11.96194,52.206188 -3.45892,2.02521 -9.53018,0.99127 -13.684687,1.94672 z M 125.9452,74.886073 C 91.927524,71.134276 57.783052,68.540896 23.794618,64.548428 c 2.078802,-2.561699 6.34723,-4.493323 3.351308,-8.025579 -1.794836,-4.415778 8.833221,-10.662289 1.45475,-3.850354 5.272161,-5.556103 9.440076,0.946121 14.646729,0.878238 3.81483,-1.084038 11.983821,0.906477 9.983996,-5.193 -1.216335,-3.807033 0.937465,-5.837917 4.262326,-7.251571 3.078843,-3.954243 4.948527,2.134901 7.55692,2.519997 2.465215,-1.593019 6.59999,-2.191126 5.27796,-6.041012 0.08809,-3.010114 -1.1147,-7.027711 3.279684,-6.676923 5.673334,-2.641742 8.019837,-0.168903 9.124959,4.872749 3.990449,3.470732 5.511377,-1.669924 8.230645,-1.883666 4.322767,1.194387 10.810595,4.028675 7.310592,9.53834 -2.794822,3.669796 -9.537269,-0.72659 -13.478197,-0.601114 -5.096738,5.674181 0.683039,11.701326 6.832227,10.296724 2.29066,-5.461957 10.357483,-4.47484 14.883003,-4.353361 1.61914,4.029324 1.76232,8.170042 -3.50345,7.282721 -3.071853,0.792447 -2.25699,6.986422 2.07125,5.794784 5.49901,3.381054 0.68733,-6.193634 4.76757,-5.80387 4.62151,-2.960015 9.22599,4.170315 6.68586,6.515078 -5.60322,1.583653 4.77827,7.238723 4.96711,1.470572 5.0439,-2.833414 9.55221,2.539603 7.11335,6.770164 -0.96106,3.460396 -8.13297,-0.420793 -3.77332,2.652151 -1.71258,-0.401438 2.03597,1.186236 1.10531,1.426577 z m -1.06744,-24.261464 c -4.52452,-1.339668 -14.70181,0.226316 -12.55846,-7.188712 -0.97754,-3.799793 1.37074,-7.143111 4.99128,-8.073664 -3.19329,3.665716 1.70609,11.668669 6.35973,9.502295 8.70889,-5.058661 4.30609,4.732262 1.20745,5.760081 z M 95.747255,32.906621 c -8.275134,1.757343 -8.179425,-7.088697 -9.338229,-12.689571 3.803309,-2.475994 4.783631,-2.465675 4.047156,0.367683 6.746154,0.514139 2.445584,7.583725 5.62272,10.551325 2.740944,1.884326 3.665686,2.014325 -0.331647,1.770563 z"
       style="fill:#b3754e;stroke-width:0.736536"
       id="path4636" />
    <path
       d="m 97.956873,154.11817 c -8.957017,0.43406 -17.454815,-1.83808 -26.331725,-2.34186 -8.110596,-0.53094 -16.218623,-1.10229 -24.319163,-1.77044 -1.710009,3.41751 -3.035812,-3.94096 -4.571564,-5.41211 -1.446093,-2.74346 -4.966995,-3.57728 -7.303238,-5.50143 -3.272012,-0.004 -7.370136,1.04332 -6.991836,-3.60368 -4.620718,-17.42001 -8.507446,-35.06322 -13.498112,-52.367275 36.19584,4.814874 72.669146,8.609185 108.293985,16.837801 -4.17759,17.172204 -7.01095,34.695234 -11.69396,51.721384 -3.16832,2.54713 -9.55107,1.35259 -13.584387,2.43761 z m 33.091827,-4.71533 c -0.34136,-3.45314 5.5519,-2.0752 7.97806,-3.26386 7.18351,-1.37396 14.40641,-2.56863 21.53561,-4.20575 -6.52465,3.61633 -14.68429,3.91392 -21.9013,5.91551 -2.53572,0.52578 -5.06478,1.08936 -7.61237,1.5541 z m 6.49693,-17.16864 c -2.55774,-1.77282 10.8508,-2.84762 14.19749,-3.87289 3.31511,-1.27537 20.38031,-3.25233 9.02578,-0.0814 -7.70615,1.51761 -15.50649,2.4972 -23.22327,3.95434 z m 5.09242,-16.61789 c -4.51615,0.75761 2.37777,-2.79397 4.58555,-2.2838 8.00616,-1.61967 16.01234,-3.23927 24.01852,-4.85888 0.10249,3.24815 -5.47326,1.79761 -7.80639,3.0303 -6.91395,1.44581 -13.97248,2.35623 -20.79768,4.11238 z M 125.9452,74.886073 C 91.927524,71.134276 57.783052,68.540896 23.794618,64.548428 c 2.078802,-2.561699 6.34723,-4.493323 3.351308,-8.025579 -1.794836,-4.415778 8.833221,-10.662289 1.45475,-3.850354 5.272161,-5.556103 9.440076,0.946121 14.646729,0.878238 3.81483,-1.084038 11.983821,0.906477 9.983996,-5.193 -1.216335,-3.807033 0.937465,-5.837917 4.262326,-7.251571 3.078843,-3.954243 4.948527,2.134901 7.55692,2.519997 2.465215,-1.593019 6.59999,-2.191126 5.27796,-6.041012 0.08809,-3.010114 -1.1147,-7.027711 3.279684,-6.676923 5.673334,-2.641742 8.019837,-0.168903 9.124959,4.872749 3.990449,3.470732 5.511377,-1.669924 8.230645,-1.883666 4.322767,1.194387 10.810595,4.028675 7.310592,9.53834 -2.794822,3.669796 -9.537269,-0.72659 -13.478197,-0.601114 -5.096738,5.674181 0.683039,11.701326 6.832227,10.296724 2.29066,-5.461957 10.357483,-4.47484 14.883003,-4.353361 1.61914,4.029324 1.76232,8.170042 -3.50345,7.282721 -3.071853,0.792447 -2.25699,6.986422 2.07125,5.794784 5.49901,3.381054 0.68733,-6.193634 4.76757,-5.80387 4.62151,-2.960015 9.22599,4.170315 6.68586,6.515078 -5.60322,1.583653 4.77827,7.238723 4.96711,1.470572 5.0439,-2.833414 9.55221,2.539603 7.11335,6.770164 -0.96106,3.460396 -8.13297,-0.420793 -3.77332,2.652151 -1.71258,-0.401438 2.03597,1.186236 1.10531,1.426577 z m -1.06744,-24.261464 c -4.52452,-1.339668 -14.70181,0.226316 -12.55846,-7.188712 -0.97754,-3.799793 1.37074,-7.143111 4.99128,-8.073664 -3.19329,3.665716 1.70609,11.668669 6.35973,9.502295 8.70889,-5.058661 4.30609,4.732262 1.20745,5.760081 z M 95.747255,32.906621 c -8.275134,1.757343 -8.179425,-7.088697 -9.338229,-12.689571 3.803309,-2.475994 4.783631,-2.465675 4.047156,0.367683 6.746154,0.514139 2.445584,7.583725 5.62272,10.551325 2.740944,1.884326 3.665686,2.014325 -0.331647,1.770563 z"
       style="fill:#737d81;stroke-width:0.736536"
       id="path4634" />
    <path
       d="m 97.956873,154.11948 c -14.883341,-0.53392 -29.644644,-3.28255 -44.567771,-3.70923 -2.899484,-0.84848 -7.657092,1.19199 -8.828418,-2.34338 -1.365212,-2.83342 -2.67024,-5.72253 -5.838033,-6.88778 -2.574658,-2.62889 -6.059453,-2.12328 -9.407865,-2.08737 -4.788398,-18.65347 -9.145937,-37.45105 -14.373551,-55.970949 36.195843,4.814857 72.669143,8.609192 108.293985,16.837792 -4.17758,17.172207 -7.01095,34.695227 -11.69396,51.721377 -3.16849,2.54727 -9.54992,1.35186 -13.584387,2.43954 z m 33.091827,-4.71664 c -0.34136,-3.45314 5.5519,-2.0752 7.97806,-3.26386 7.18351,-1.37396 14.40641,-2.56863 21.53561,-4.20575 -6.52465,3.61633 -14.68429,3.91392 -21.9013,5.91551 -2.53572,0.52578 -5.06478,1.08936 -7.61237,1.5541 z m 6.49693,-17.16864 c -2.55774,-1.77282 10.8508,-2.84762 14.19749,-3.87289 3.31511,-1.27537 20.38031,-3.25233 9.02578,-0.0814 -7.70615,1.51761 -15.50649,2.4972 -23.22327,3.95434 z m 5.09242,-16.61789 c -4.51615,0.75761 2.37777,-2.79397 4.58555,-2.2838 8.00616,-1.61967 16.01234,-3.23927 24.01852,-4.85888 0.10249,3.24815 -5.47326,1.79761 -7.80639,3.0303 -6.91395,1.44581 -13.97248,2.35623 -20.79768,4.11238 z M 121.15773,74.122189 C 91.828502,71.650443 62.550189,68.371794 33.237927,65.614618 c -3.106691,-0.909412 -13.02058,0.460148 -6.724799,-3.870485 3.688217,-2.662813 -1.504908,-8.498977 5.299454,-9.914196 3.54208,-2.936329 6.426307,0.797341 9.431046,2.41016 4.026096,-0.947332 9.974617,-0.133276 12.758225,-2.515186 -2.919444,-5.323602 -0.492317,-9.423828 5.277213,-10.884285 3.442949,-0.702471 6.37759,6.192235 10.444206,0.419394 3.09085,-1.557429 0.410024,-5.871652 0.884322,-8.678861 2.474114,-1.008587 9.413702,-4.321677 10.087265,-0.09105 -0.07835,4.047684 3.22284,4.553268 6.497361,5.086817 2.088364,-2.804342 4.332436,-4.742816 7.622724,-1.706842 9.221306,3.245738 0.262716,12.229122 -6.192348,7.39186 -2.933871,-3.093925 -6.297129,-0.482207 -5.764826,3.217734 -1.144057,4.185077 1.363081,6.009874 5.178408,6.925286 4.966102,1.882184 6.476085,-6.797149 13.256822,-4.122108 5.55676,-3.183573 8.76085,7.139384 1.94675,5.844912 -6.491906,0.891037 1.11782,11.640142 5.21943,6.534993 -1.14588,-5.103144 1.64002,-5.704947 5.97918,-5.062306 3.74425,0.602573 2.13122,6.068043 0.0993,6.210418 -0.91264,4.202384 2.59175,4.258397 5.80042,4.591989 0.53742,-3.469538 8.28907,-5.7375 8.13162,-0.710749 1.91506,2.654536 -1.23618,6.579962 -4.15856,5.027371 -6.65843,-1.45845 5.12034,4.126577 -2.28085,2.415151 l -0.52973,-0.0076 z m 2.99386,-24.238237 c -4.56144,-0.829969 -13.38093,0.351563 -11.07215,-6.703715 -2.42514,-3.441806 4.96446,-9.35656 2.26137,-4.626422 1.87589,3.032682 3.28035,9.50915 7.80292,6.944344 7.88288,-4.725155 4.93894,4.726971 1.00786,4.385793 z M 93.740699,32.247129 c -6.470917,1.533503 -6.108024,-8.229275 -6.289529,-12.477587 3.464972,1.816722 8.949043,2.965494 6.620113,7.918706 -3.036446,3.839865 6.484237,4.746816 0.500235,4.542722 0.207624,0.475474 -0.843094,-0.269802 -0.830819,0.01616 z"
       style="fill:#6b767a;stroke-width:0.736536"
       id="path4632" />
    <path
       d="m 97.956873,154.11948 c -14.653371,-0.5133 -29.185266,-3.21451 -43.873854,-3.6831 -2.881246,-0.83807 -7.360586,0.98442 -9.032092,-1.86767 -1.916072,-3.36345 -3.751484,-6.8093 -7.617067,-8.18084 -2.09811,-2.82488 -7.093425,0.28796 -8.390447,-2.32447 -4.631906,-18.06986 -8.673934,-36.31618 -13.910274,-54.211901 22.302391,1.537807 44.446673,5.178949 66.573249,8.362784 13.873767,2.356837 27.872222,4.286546 41.498152,7.864937 -4.16058,17.13337 -6.99068,34.61436 -11.66318,51.6002 -3.16858,2.5475 -9.54889,1.35122 -13.584487,2.44006 z m 33.091827,-4.71664 c -0.34136,-3.45314 5.5519,-2.0752 7.97806,-3.26386 7.18351,-1.37396 14.40641,-2.56863 21.53561,-4.20575 -6.52465,3.61633 -14.68429,3.91392 -21.9013,5.91551 -2.53572,0.52578 -5.06478,1.08936 -7.61237,1.5541 z m 6.49693,-17.16864 c -2.55774,-1.77282 10.8508,-2.84762 14.19749,-3.87289 3.31511,-1.27537 20.38031,-3.25233 9.02578,-0.0814 -7.70615,1.51761 -15.50649,2.4972 -23.22327,3.95434 z m 5.09242,-16.61789 c -4.51615,0.75761 2.37777,-2.79397 4.58555,-2.2838 8.00616,-1.61967 16.01234,-3.23927 24.01852,-4.85888 0.10249,3.24815 -5.47326,1.79761 -7.80639,3.0303 -6.91395,1.44581 -13.97248,2.35623 -20.79768,4.11238 z m -22.9534,-41.484033 c -4.58382,0.403446 -13.32215,-0.936709 -4.46544,-3.538759 -4.0747,3.81073 9.63973,2.424379 4.72088,3.553237 l -0.25545,-0.0169 z m -20.0271,-2.194288 c -4.513066,-0.774783 -17.245031,1.190903 -9.434308,-5.171346 -2.50011,-1.405623 -12.559414,-3.402922 -3.17822,-4.222695 7.012053,-0.922638 3.966766,3.366848 4.725977,6.734641 2.500724,1.508689 16.657311,2.18424 8.620071,2.683633 l -0.529496,-0.01749 z M 51.946912,67.505555 c -6.161829,0.52239 -13.854188,-0.962419 -6.964136,-7.223664 2.845888,2.216535 10.016127,2.211611 8.101887,7.25149 0.03137,0.386089 -0.950956,-0.167523 -1.137751,-0.02783 z M 26.321355,62.927674 c -4.731203,3.961737 -0.67223,-0.298325 1.207598,-2.520138 3.169408,-3.007717 8.939429,-0.814666 13.187848,-2.18895 2.446941,-0.205247 -4.919852,2.005618 -6.485983,2.788372 -2.736307,1.423361 -5.823097,-1.473388 -7.909463,1.917273 z m 35.154976,1.773682 c -5.115107,0.749955 1.94812,-3.101503 0.690204,-5.316705 -0.0067,-2.706304 -3.240907,-6.508528 0.06819,-8.0889 2.677494,-2.237094 -0.04099,4.476836 4.230305,6.430577 -0.586777,1.723073 -4.184471,3.502663 -2.757047,6.974333 -0.742693,0.0014 -1.487863,3.79e-4 -2.231649,6.95e-4 z m 19.667708,-9.692861 c -3.262344,1.106105 -5.948464,-2.689329 -7.080061,-4.827521 0.424084,-6.146858 1.530714,-5.28617 2.599667,0.427114 -0.885146,4.317689 9.134385,4.182361 5.711186,4.349167 -0.410264,0.01708 -0.820528,0.03416 -1.230792,0.05124 z"
       style="fill:#9b6644;stroke-width:0.736536"
       id="path4630" />
    <path
       d="m 112.50343,146.3722 c -27.658155,-6.15525 -55.927636,-8.65182 -84.149134,-10.50189 -0.169146,-4.44659 7.725826,-0.14515 10.6987,-1.1352 24.306981,2.39242 48.792325,4.07741 72.713894,9.24202 0.97863,0.077 1.95781,1.94313 0.73654,2.39507 z m 3.6213,-15.38269 c -28.265933,-5.12203 -56.925931,-8.49536 -85.614034,-10.28543 -5.380698,1.89374 -9.510138,-4.15515 -1.394336,-2.35005 29.253303,3.05783 58.649174,5.36854 87.62214,10.57895 -0.0741,0.66903 0.27028,1.77726 -0.61377,2.05653 z m 3.3758,-14.81305 c -32.88003,-5.00044 -65.830774,-9.62367 -98.879853,-13.36942 -1.686694,-4.768944 11.898604,0.48734 15.396238,-0.27771 27.923426,3.67435 55.847018,7.38794 83.667715,11.78332 -0.0257,0.62493 0.0896,1.26428 -0.1841,1.86381 z m 2.02546,-15.48881 C 87.913253,95.535523 54.404558,89.571781 20.633897,85.464199 13.673283,84.674748 16.39062,83.01848 21.173079,84.172758 c 33.583519,4.005704 67.286925,8.02379 100.298031,15.529957 2.78927,0.999375 2.68962,1.178375 0.0549,0.984935 z m -1.84134,-26.555373 c -4.58382,0.403446 -13.32215,-0.936709 -4.46544,-3.538759 -4.0747,3.81073 9.63973,2.424379 4.72088,3.553237 l -0.25545,-0.0169 z m -20.0271,-2.194288 c -4.513066,-0.774783 -17.245031,1.190903 -9.434308,-5.171346 -2.50011,-1.405623 -12.559414,-3.402922 -3.17822,-4.222695 7.012053,-0.922638 3.966766,3.366848 4.725977,6.734641 2.500724,1.508689 16.657311,2.18424 8.620071,2.683633 l -0.529496,-0.01749 z M 51.946912,67.505555 c -6.161829,0.52239 -13.854188,-0.962419 -6.964136,-7.223664 2.845888,2.216535 10.016127,2.211611 8.101887,7.25149 0.03137,0.386089 -0.950956,-0.167523 -1.137751,-0.02783 z M 26.321355,62.927674 c -4.731203,3.961737 -0.67223,-0.298325 1.207598,-2.520138 3.169408,-3.007717 8.939429,-0.814666 13.187848,-2.18895 2.446941,-0.205247 -4.919852,2.005618 -6.485983,2.788372 -2.736307,1.423361 -5.823097,-1.473388 -7.909463,1.917273 z m 35.154976,1.773682 c -5.115107,0.749955 1.94812,-3.101503 0.690204,-5.316705 -0.0067,-2.706304 -3.240907,-6.508528 0.06819,-8.0889 2.677494,-2.237094 -0.04099,4.476836 4.230305,6.430577 -0.586777,1.723073 -4.184471,3.502663 -2.757047,6.974333 -0.742693,0.0014 -1.487863,3.79e-4 -2.231649,6.95e-4 z m 19.667708,-9.692861 c -3.262344,1.106105 -5.948464,-2.689329 -7.080061,-4.827521 0.424084,-6.146858 1.530714,-5.28617 2.599667,0.427114 -0.885146,4.317689 9.134385,4.182361 5.711186,4.349167 -0.410264,0.01708 -0.820528,0.03416 -1.230792,0.05124 z"
       style="fill:#596367;stroke-width:0.736536"
       id="path4628" />
    <path
       d="m 112.50343,146.3722 c -27.658155,-6.15525 -55.927636,-8.65182 -84.149134,-10.50189 -0.169146,-4.44659 7.725826,-0.14515 10.6987,-1.1352 24.306981,2.39242 48.792325,4.07741 72.713894,9.24202 0.97863,0.077 1.95781,1.94313 0.73654,2.39507 z m 3.6213,-15.38269 c -28.265933,-5.12203 -56.925931,-8.49536 -85.614034,-10.28543 -5.380698,1.89374 -9.510138,-4.15515 -1.394336,-2.35005 29.253303,3.05783 58.649174,5.36854 87.62214,10.57895 -0.0741,0.66903 0.27028,1.77726 -0.61377,2.05653 z m 3.3758,-14.81305 c -32.88003,-5.00044 -65.830774,-9.62367 -98.879853,-13.36942 -1.686694,-4.768944 11.898604,0.48734 15.396238,-0.27771 27.923426,3.67435 55.847018,7.38794 83.667715,11.78332 -0.0257,0.62493 0.0896,1.26428 -0.1841,1.86381 z m 2.02546,-15.48881 C 87.383002,95.411986 53.324,89.457797 19.024471,85.219002 c -7.93985,-2.307052 7.737697,-0.545285 10.532719,-0.06619 30.802521,3.999288 61.770111,7.59395 92.06345,14.587674 2.8782,1.167109 2.48985,1.040969 -0.0947,0.947159 z"
       style="fill:#8c593a;stroke-width:0.736536"
       id="path4626" />
    <path
       d="m 112.87171,146.36531 c -26.924121,-7.20228 -54.995922,-8.14064 -82.602564,-10.86715 -2.395504,-2.06218 10.615822,0.0809 14.718676,0.20087 22.801657,1.92992 45.571307,4.48965 68.068018,8.74463 -0.0245,0.64503 0.0886,1.31208 -0.18413,1.92165 z m 2.76199,-16.19292 c -29.338979,-4.96737 -58.984387,-8.03457 -88.636237,-10.44905 -6.168376,-2.39787 8.766517,-0.0885 11.127885,-0.0675 26.000874,2.78343 52.21863,4.71136 77.868782,9.89939 1.48434,0.76556 1.23326,0.67171 -0.36043,0.61712 z m 2.94614,-14.79226 c -32.699866,-4.47002 -65.438326,-9.23415 -98.136303,-13.34894 2.84276,-2.930559 14.419455,2.17959 20.004485,1.56603 26.109178,3.57875 52.342066,6.61394 78.262288,11.32773 1.25534,0.53329 2.24111,0.52683 -0.13047,0.45518 z m 3.98958,-14.66133 C 87.465521,94.311917 52.12518,89.250996 16.796855,84.280829 c 6.654149,-0.302822 19.936678,2.152693 28.83471,3.066847 25.709716,3.517841 51.535843,6.851832 76.833615,12.699194 0.76681,-0.429469 1.09661,1.19723 0.10424,0.67193 z"
       style="fill:#794c31;stroke-width:0.736536"
       id="path4624" />
    <g
       transform="matrix(8.6992333,0,0,8.6992333,-637.79494,-1538.9853)"
       id="g1116" />
  </g>
</svg>
